<?xml version="1.0" encoding="utf-8"?>
<!-- Generator: Adobe Illustrator 24.0.0, SVG Export Plug-In . SVG Version: 6.00 Build 0)  -->
<svg version="1.1" id="Layer_1" xmlns="http://www.w3.org/2000/svg" xmlns:xlink="http://www.w3.org/1999/xlink" x="0px" y="0px"
	 viewBox="0 0 16 20" style="enable-background:new 0 0 16 20;" xml:space="preserve">
<style type="text/css">
	.st0{opacity:0.15;}
	.st1{fill:#FFFFFF;}
	.st2{opacity:0.2;}
	.st3{opacity:0.4;}
	.st4{fill:#FFFFFF;stroke:#FFFFFF;stroke-width:0.5;stroke-miterlimit:10;}
	.st5{fill:#FFFFFF;stroke:#FFFFFF;stroke-width:0.6;stroke-miterlimit:10;}
	.st6{fill:#F7941D;}
	.st7{fill-rule:evenodd;clip-rule:evenodd;fill:#FFFFFF;}
</style>
<g>
	<g>
		<g>
			<path class="st6" d="M7.716,0.005C3.742,0.145,0.441,3.245,0.06,7.202C-0.018,7.993,0.027,8.76,0.166,9.494l0,0
				c0,0,0.012,0.086,0.053,0.25c0.123,0.549,0.308,1.083,0.537,1.583c0.8,1.895,2.649,5.064,6.799,8.513
				c0.254,0.213,0.627,0.213,0.886,0c4.15-3.445,5.999-6.614,6.803-8.517c0.234-0.5,0.414-1.029,0.537-1.583
				c0.037-0.16,0.053-0.25,0.053-0.25l0,0c0.094-0.492,0.144-0.996,0.144-1.513C15.978,3.474,12.251-0.155,7.716,0.005z
				 M7.998,11.946c-2.141,0-3.875-1.735-3.875-3.875s1.735-3.875,3.875-3.875s3.875,1.735,3.875,3.875S10.139,11.946,7.998,11.946z"
				/>
		</g>
	</g>
</g>
</svg>
