<?xml version="1.0" encoding="utf-8"?>
<!-- Generator: Adobe Illustrator 24.0.0, SVG Export Plug-In . SVG Version: 6.00 Build 0)  -->
<svg version="1.1" id="Layer_1" xmlns="http://www.w3.org/2000/svg" xmlns:xlink="http://www.w3.org/1999/xlink" x="0px" y="0px"
	 viewBox="0 0 18 18" style="enable-background:new 0 0 18 18;" xml:space="preserve">
<style type="text/css">
	.st0{opacity:0.15;}
	.st1{fill:#FFFFFF;}
	.st2{opacity:0.2;}
	.st3{opacity:0.4;}
	.st4{fill:#FFFFFF;stroke:#FFFFFF;stroke-width:0.5;stroke-miterlimit:10;}
	.st5{fill:#FFFFFF;stroke:#FFFFFF;stroke-width:0.6;stroke-miterlimit:10;}
	.st6{fill:#F7941D;}
</style>
<g>
	<path class="st1" d="M1.09,14.801h2.109v-3.164h1.055v3.164h1.055v-3.164h1.055v3.164h1.055v-3.164h1.055v3.164h1.055v-3.164h1.055
		v3.164h1.055v-3.164h1.055v3.164h1.055v-3.164h1.055v3.164h2.145v-3.164H18v-1.055H0v1.055h1.09V14.801z"/>
	<path class="st1" d="M14.801,5.801c0-3.021-2.321-5.533-5.273-5.801v0.527c0,1.804,0.818,3.475,2.244,4.583
		c0.883,0.687,1.931,1.089,3.029,1.189V5.801z"/>
	<path class="st1" d="M8.473,0.527V0C5.521,0.268,3.199,2.78,3.199,5.801v0.492c0.899-0.08,1.768-0.356,2.553-0.849
		C7.456,4.374,8.473,2.536,8.473,0.527z"/>
	<path class="st1" d="M14.801,9.527V7.362c-0.728-0.053-1.434-0.232-2.109-0.517v2.682H14.801z"/>
	<path class="st1" d="M3.199,9.527h2.109V6.855C4.634,7.14,3.916,7.298,3.199,7.351V9.527z"/>
	<path class="st1" d="M1.09,15.855h15.855V18H1.09V15.855z"/>
</g>
</svg>
