<?xml version="1.0" encoding="utf-8"?>
<!-- Generator: Adobe Illustrator 16.0.0, SVG Export Plug-In . SVG Version: 6.00 Build 0)  -->
<!DOCTYPE svg PUBLIC "-//W3C//DTD SVG 1.1//EN" "http://www.w3.org/Graphics/SVG/1.1/DTD/svg11.dtd">
<svg version="1.1" id="Layer_1" xmlns="http://www.w3.org/2000/svg" xmlns:xlink="http://www.w3.org/1999/xlink" x="0px" y="0px"
	 width="60px" height="60px" viewBox="0 0 60 60" enable-background="new 0 0 60 60" xml:space="preserve">
<g>
	<g>
		<g>
			<path fill="#F7941D" d="M49.336,31.758H10.664c-1.942,0-3.516,1.574-3.516,3.516c0,1.942,1.574,3.517,3.516,3.517h0.914
				l1.11,1.388c3.228,4.036,5.008,9.106,5.008,14.276V60h24.611v-5.546c0-5.168,1.777-10.24,5.006-14.276l1.111-1.388h0.914
				c1.941,0,3.516-1.574,3.516-3.517C52.852,33.332,51.277,31.758,49.336,31.758z M28.242,56.368H21.21v-1.914
				c0-0.538-0.104-1.065-0.136-1.603h7.168V56.368z M28.242,49.336h-7.586c-0.236-1.189-0.514-2.372-0.912-3.516h8.498V49.336z
				 M28.242,42.305H18.188c-0.636-1.225-1.368-2.396-2.182-3.517h12.236V42.305z M38.79,54.454v1.914h-7.032v-3.54h7.168
				C38.893,53.364,38.79,53.914,38.79,54.454z M39.344,49.336h-7.586v-3.54h8.498C39.859,46.941,39.582,48.146,39.344,49.336z
				 M41.813,42.305H31.758v-3.541h12.236C43.18,39.886,42.448,41.08,41.813,42.305z"/>
		</g>
	</g>
	<g>
		<g>
			<path fill="#F7941D" d="M31.758,17.872v10.37h3.658c0.311-2.642,1.268-5.156,2.805-7.332
				C36.45,19.308,34.229,18.232,31.758,17.872z"/>
		</g>
	</g>
	<g>
		<g>
			<path fill="#F7941D" d="M21.78,20.91c1.536,2.176,2.494,4.69,2.804,7.332h3.658v-10.37C25.772,18.232,23.55,19.308,21.78,20.91z"
				/>
		</g>
	</g>
	<g>
		<g>
			<path fill="#F7941D" d="M54.727,0H5.274C2.366,0,0,2.366,0,5.274v38.791c0,2.908,2.366,5.273,5.274,5.273h8.144
				c-0.694-2.516-1.832-4.906-3.476-6.962L9.82,42.221c-3.476-0.423-6.188-3.359-6.188-6.947c0-3.877,3.154-7.031,7.032-7.031h3.694
				C15.244,20.354,21.878,14.18,30,14.18s14.756,6.174,15.643,14.062h3.693c3.878,0,7.032,3.154,7.032,7.031
				c0,3.588-2.712,6.524-6.188,6.947l-0.123,0.155c-1.645,2.054-2.781,4.444-3.475,6.96h8.146c2.908,0,5.273-2.365,5.273-5.273
				V5.274C60,2.366,57.634,0,54.727,0z M52.852,10.546H7.148V7.032h45.704V10.546L52.852,10.546z"/>
		</g>
	</g>
	<g>
		<g>
			<path fill="#F7941D" d="M19.48,23.714c-0.82,1.366-1.4,2.892-1.648,4.528h3.246C20.846,26.64,20.306,25.102,19.48,23.714z"/>
		</g>
	</g>
	<g>
		<g>
			<path fill="#F7941D" d="M40.52,23.714c-0.826,1.388-1.365,2.926-1.598,4.528h3.246C41.92,26.608,41.34,25.082,40.52,23.714z"/>
		</g>
	</g>
</g>
</svg>
