<?xml version="1.0" encoding="utf-8"?>
<!-- Generator: Adobe Illustrator 24.0.0, SVG Export Plug-In . SVG Version: 6.00 Build 0)  -->
<svg version="1.1" id="Layer_1" xmlns="http://www.w3.org/2000/svg" xmlns:xlink="http://www.w3.org/1999/xlink" x="0px" y="0px"
	 viewBox="0 0 18 18" style="enable-background:new 0 0 18 18;" xml:space="preserve">
<style type="text/css">
	.st0{opacity:0.15;}
	.st1{fill:#FFFFFF;}
	.st2{opacity:0.2;}
	.st3{opacity:0.4;}
	.st4{fill:#FFFFFF;stroke:#FFFFFF;stroke-width:0.5;stroke-miterlimit:10;}
	.st5{fill:#FFFFFF;stroke:#FFFFFF;stroke-width:0.6;stroke-miterlimit:10;}
	.st6{fill:#F7941D;}
</style>
<g>
	<g>
		<g>
			<path class="st1" d="M16.945,8.473h-3.199v2.109h3.199c0.583,0,1.055-0.472,1.055-1.055C18,8.945,17.528,8.473,16.945,8.473z"/>
		</g>
	</g>
	<g>
		<g>
			<path class="st1" d="M13.746,11.637v1.582c0,0.872-0.71,1.582-1.582,1.582H8.965c-0.872,0-1.582-0.71-1.582-1.582v-1.582H1.055
				v0.527c0,2.228,1.549,4.124,3.622,4.632L4.373,17.1c-0.206,0.206-0.206,0.54,0,0.746c0.206,0.206,0.54,0.206,0.746,0l0.9-0.9
				h5.927l0.9,0.9c0.206,0.206,0.54,0.206,0.746,0s0.206-0.54,0-0.746l-0.304-0.304c2.074-0.508,3.657-2.404,3.657-4.632v-0.527
				H13.746z"/>
		</g>
	</g>
	<g>
		<g>
			<path class="st1" d="M8.437,8.473c0,2.829,0,1.669,0,4.746c0,0.291,0.236,0.527,0.527,0.527h3.199
				c0.291,0,0.527-0.236,0.527-0.527c0-2.199,0-2.55,0-4.746C11.137,8.473,9.981,8.473,8.437,8.473z"/>
		</g>
	</g>
	<g>
		<g>
			<path class="st1" d="M6.328,2.163V1.582C6.328,0.71,5.618,0,4.746,0H2.637C1.764,0,1.055,0.71,1.055,1.582
				c0,2.321,0,4.488,0,6.891C0.472,8.473,0,8.945,0,9.527c0,0.583,0.472,1.055,1.055,1.055h6.328V8.473c-1.495,0-2.678,0-4.219,0
				V7.418c0-0.583-0.472-1.055-1.055-1.055V1.582c0-0.291,0.236-0.527,0.527-0.527h2.109c0.291,0,0.527,0.236,0.527,0.527v0.581
				c-1.202,0.245-2.109,1.31-2.109,2.583c0,0.291,0.236,0.527,0.527,0.527H7.91c0.291,0,0.527-0.236,0.527-0.527
				C8.437,3.473,7.53,2.408,6.328,2.163z"/>
		</g>
	</g>
</g>
</svg>
