<?xml version="1.0" encoding="utf-8"?>
<!-- Generator: Adobe Illustrator 24.0.0, SVG Export Plug-In . SVG Version: 6.00 Build 0)  -->
<svg version="1.1" id="Layer_1" xmlns="http://www.w3.org/2000/svg" xmlns:xlink="http://www.w3.org/1999/xlink" x="0px" y="0px"
	 viewBox="0 0 18 18" style="enable-background:new 0 0 18 18;" xml:space="preserve">
<style type="text/css">
	.st0{opacity:0.15;}
	.st1{fill:#FFFFFF;}
	.st2{opacity:0.2;}
	.st3{opacity:0.4;}
	.st4{fill:#FFFFFF;stroke:#FFFFFF;stroke-width:0.5;stroke-miterlimit:10;}
	.st5{fill:#FFFFFF;stroke:#FFFFFF;stroke-width:0.6;stroke-miterlimit:10;}
	.st6{fill:#F7941D;}
</style>
<g>
	<g>
		<path class="st1" d="M0,17h1.055v-1.741h15.891V17H18v-5.384H0V17z"/>
		<path class="st1" d="M0,8.773h18v1.706H0V8.773z"/>
		<path class="st1" d="M10.055,6.003c-0.291,0-0.527,0.255-0.527,0.569v1.063h4.257V6.572c0-0.314-0.237-0.569-0.527-0.569H10.055z"
			/>
		<path class="st1" d="M3.161,6.572c0-0.941,0.71-1.706,1.582-1.706h3.202C8.35,4.866,8.72,5.031,9,5.301
			c0.28-0.271,0.65-0.436,1.055-0.436h3.202c0.872,0,1.582,0.765,1.582,1.706v1.063h2.109V1h-1.055v1.286H2.106V1H1.052v6.635h2.109
			V6.572z"/>
		<path class="st1" d="M4.743,6.003c-0.291,0-0.527,0.255-0.527,0.569v1.063h4.257V6.572c0-0.314-0.237-0.569-0.527-0.569H4.743z"/>
	</g>
</g>
</svg>
