<?xml version="1.0" encoding="utf-8"?>
<!-- Generator: Adobe Illustrator 16.0.0, SVG Export Plug-In . SVG Version: 6.00 Build 0)  -->
<!DOCTYPE svg PUBLIC "-//W3C//DTD SVG 1.1//EN" "http://www.w3.org/Graphics/SVG/1.1/DTD/svg11.dtd">
<svg version="1.1" id="Layer_1" xmlns="http://www.w3.org/2000/svg" xmlns:xlink="http://www.w3.org/1999/xlink" x="0px" y="0px"
	 width="60px" height="60px" viewBox="0 0 60 60" enable-background="new 0 0 60 60" xml:space="preserve">
<g>
	<path fill="#F7941D" stroke="#F7941D" stroke-width="0.5" stroke-miterlimit="10" d="M45.488,34.156
		c1.213-0.582,2.252-1.496,2.933-2.647c2.301,0.593,4.774-0.063,6.482-1.77c1.707-1.707,2.362-4.182,1.77-6.482
		C58.726,22.045,60,19.844,60,17.418c0-2.425-1.286-4.626-3.328-5.839c0.594-2.301-0.063-4.763-1.77-6.482s-4.182-2.363-6.482-1.77
		C47.208,1.274,45.006,0,42.582,0c-2.426,0-4.627,1.286-5.84,3.328c-2.301-0.593-4.764,0.063-6.482,1.77
		c-1.719,1.719-2.363,4.182-1.77,6.482c-2.053,1.212-3.329,3.415-3.329,5.839c0,2.425,1.287,4.627,3.329,5.84
		c-0.594,2.301,0.062,4.763,1.77,6.482c1.707,1.72,4.182,2.363,6.482,1.77c0.68,1.163,1.719,2.066,2.932,2.647v12.297h-1.385
		l-2.908-4.837H21.885l-2.896-5.814h-4.466v1.93h3.278l2.4,4.8l-2.351,3.91h-6.234V30h9.674v-0.965c0-5.864-4.775-10.64-10.64-10.64
		s-10.64,4.775-10.64,10.64V30h9.674v16.453H0v5.803h60v-5.803H45.488V34.156z M10.64,20.722l0.73,0.73
		c1.793,1.793,2.87,4.107,3.093,6.606H6.816c0.223-2.499,1.299-4.812,3.093-6.606L10.64,20.722z M19.299,28.07h-2.896
		c-0.21-2.71-1.262-5.245-3.043-7.299C16.541,21.811,18.915,24.644,19.299,28.07z M7.93,20.771
		c-1.781,2.053-2.833,4.589-3.043,7.299H1.992C2.375,24.644,4.751,21.811,7.93,20.771z M17.418,48.384h6.779v1.931h-6.779V48.384z
		 M15.489,50.326H9.674v-1.93h5.802v1.93H15.489z M26.128,48.384h7.745v1.931h-7.745V48.384L26.128,48.384z M35.803,48.384h6.779
		v1.931h-6.779V48.384z M44.512,48.384h5.803v1.931h-5.803V48.384z M36.668,12.582l-1.72,0.903L36,15.489h-3.093v1.93h4.107
		l2.659,5.072v9.402c-0.668-0.508-1.225-1.162-1.559-1.955l-0.371-0.878l-0.878,0.359c-1.807,0.73-3.86,0.31-5.233-1.063
		s-1.793-3.427-1.063-5.233l0.358-0.878l-0.877-0.371c-1.793-0.755-2.957-2.511-2.957-4.453c0-1.941,1.163-3.699,2.957-4.453
		l0.877-0.371l-0.358-0.878c-0.729-1.806-0.31-3.859,1.063-5.233s3.427-1.793,5.233-1.063l0.878,0.359l0.371-0.878
		c0.755-1.793,2.512-2.956,4.453-2.956s3.699,1.163,4.453,2.956l0.371,0.878l0.878-0.359c1.807-0.73,3.86-0.31,5.233,1.063
		s1.793,3.427,1.063,5.233l-0.358,0.878l0.877,0.371c1.794,0.755,2.957,2.511,2.957,4.453c0,1.942-1.163,3.7-2.957,4.453
		l-0.877,0.371l0.358,0.878c0.729,1.806,0.31,3.859-1.063,5.233s-3.439,1.793-5.233,1.063l-0.878-0.359l-0.371,0.878
		c-0.334,0.792-0.879,1.447-1.559,1.955V22.49l4.726-8.944l-1.708-0.903l-1.533,2.932l-2.722-2.722l-1.36,1.374l3.142,3.142
		l-2.449,4.652v24.433h-1.929V22.021L36.668,12.582z M21.834,43.547h12.458l1.744,2.907H20.09L21.834,43.547z M1.93,48.384h5.803
		v1.931H1.93V48.384z M58.07,50.326h-5.803v-1.93h5.803V50.326z"/>
	<path fill="#F7941D" stroke="#F7941D" stroke-width="0.5" stroke-miterlimit="10" d="M54.989,58.07
		c-0.915,0-1.336-0.322-1.917-0.768c-0.682-0.519-1.51-1.174-3.094-1.174c-1.582,0-2.425,0.643-3.092,1.174
		c-0.57,0.445-0.99,0.768-1.905,0.768s-1.337-0.322-1.905-0.768c-0.667-0.519-1.51-1.174-3.092-1.174
		c-1.584,0-2.426,0.643-3.094,1.174c-0.568,0.445-0.988,0.768-1.904,0.768c-0.915,0-1.336-0.322-1.904-0.768
		c-0.682-0.519-1.51-1.174-3.093-1.174c-1.584,0-2.425,0.643-3.093,1.174c-0.569,0.445-0.99,0.768-1.905,0.768
		c-0.916,0-1.336-0.322-1.905-0.768c-0.667-0.519-1.51-1.174-3.093-1.174c-1.584,0-2.412,0.643-3.093,1.174
		c-0.569,0.445-0.989,0.768-1.905,0.768c-0.915,0-1.336-0.322-1.905-0.768c-0.667-0.519-1.51-1.174-3.092-1.174
		c-1.583,0-2.412,0.643-3.093,1.174c-0.57,0.445-0.99,0.768-1.905,0.768c-0.916,0-1.336-0.322-1.905-0.768
		C2.425,56.784,1.584,56.129,0,56.129v1.93c0.915,0,1.336,0.321,1.905,0.767C2.573,59.344,3.415,60,4.998,60
		s2.412-0.644,3.093-1.175c0.569-0.445,0.989-0.767,1.905-0.767c0.915,0,1.336,0.321,1.904,0.767C12.569,59.344,13.411,60,14.994,60
		c1.583,0,2.412-0.644,3.092-1.175c0.57-0.445,0.99-0.767,1.905-0.767c0.916,0,1.336,0.321,1.905,0.767
		C22.565,59.344,23.407,60,24.989,60c1.584,0,2.425-0.644,3.093-1.175c0.57-0.445,0.99-0.767,1.905-0.767
		c0.916,0,1.336,0.321,1.905,0.767C32.561,59.344,33.402,60,34.985,60c1.584,0,2.425-0.644,3.093-1.175
		c0.569-0.445,0.99-0.767,1.904-0.767c0.916,0,1.337,0.321,1.905,0.767C42.557,59.344,43.397,60,44.981,60s2.425-0.644,3.093-1.175
		c0.569-0.445,0.989-0.767,1.904-0.767c0.916,0,1.337,0.321,1.918,0.767C52.578,59.344,53.406,60,54.989,60
		c1.584,0,2.425-0.644,3.093-1.175c0.57-0.445,0.99-0.767,1.904-0.767v-1.93c-1.584,0-2.424,0.643-3.092,1.174
		C56.326,57.748,55.918,58.07,54.989,58.07z"/>
</g>
</svg>
