<?xml version="1.0" encoding="utf-8"?>
<!-- Generator: Adobe Illustrator 16.0.0, SVG Export Plug-In . SVG Version: 6.00 Build 0)  -->
<!DOCTYPE svg PUBLIC "-//W3C//DTD SVG 1.1//EN" "http://www.w3.org/Graphics/SVG/1.1/DTD/svg11.dtd">
<svg version="1.1" id="Layer_1" xmlns="http://www.w3.org/2000/svg" xmlns:xlink="http://www.w3.org/1999/xlink" x="0px" y="0px"
	 width="60px" height="60px" viewBox="0 0 60 60" enable-background="new 0 0 60 60" xml:space="preserve">
<g>
	<path fill="#F7941D" stroke="#F7941D" stroke-width="0.5" stroke-miterlimit="10" d="M25.438,17.026l4.184,2.294
		c0.195,0.114,0.42,0.156,0.66,0.156c0.225,0,0.449-0.057,0.66-0.156l4.184-2.294c2.174-1.19,3.659-2.918,4.17-4.886
		c0.495-1.884-0.016-3.527-1.485-4.746c-2.789-2.28-5.788-1.558-7.528-0.566c-1.74-0.992-4.739-1.714-7.528,0.566
		c-1.469,1.205-1.994,2.847-1.484,4.746C21.794,14.107,23.264,15.835,25.438,17.026z M24.418,8.768
		c0.855-0.708,1.694-0.935,2.444-0.935c1.305,0,2.31,0.722,2.579,0.949c0.465,0.369,1.2,0.369,1.664,0
		c0.421-0.34,2.654-1.94,5.024,0c0.899,0.736,1.185,1.714,0.854,2.961c-0.389,1.473-1.514,2.776-3.178,3.683l-3.524,1.927
		l-3.524-1.927c-1.665-0.906-2.79-2.223-3.179-3.683C23.233,10.481,23.518,9.504,24.418,8.768L24.418,8.768z"/>
	<path fill="#F7941D" stroke="#F7941D" stroke-width="0.5" stroke-miterlimit="10" d="M25.978,3.3
		c0.165,0.412,0.629,0.666,1.125,0.666c0.12,0,0.255-0.014,0.375-0.057c0.615-0.17,0.944-0.722,0.749-1.218l-0.675-1.643
		c-0.209-0.51-0.869-0.779-1.484-0.609c-0.615,0.17-0.945,0.722-0.75,1.219L25.978,3.3z"/>
	<path fill="#F7941D" stroke="#F7941D" stroke-width="0.5" stroke-miterlimit="10" d="M34.271,3.91
		c0.119,0.028,0.255,0.057,0.375,0.057c0.495,0,0.959-0.255,1.125-0.666l0.675-1.643c0.21-0.509-0.136-1.048-0.749-1.219
		c-0.63-0.17-1.29,0.1-1.485,0.609l-0.675,1.643C33.311,3.187,33.656,3.74,34.271,3.91z"/>
	<path fill="#F7941D" stroke="#F7941D" stroke-width="0.5" stroke-miterlimit="10" d="M30.566,3.867
		c0.645,0,1.185-0.439,1.185-0.963v-1.94C31.751,0.425,31.227,0,30.566,0c-0.645,0-1.185,0.439-1.185,0.963v1.94
		C29.396,3.428,29.921,3.867,30.566,3.867z"/>
	<path fill="#F7941D" stroke="#F7941D" stroke-width="0.5" stroke-miterlimit="10" d="M59.524,28.556
		c0.255-0.156,0.42-0.397,0.465-0.666c0.044-0.27-0.06-0.523-0.27-0.736L47.963,15.581c-0.404-0.397-1.109-0.467-1.62-0.156
		l-9.178,5.652l-13.152,1.913c-0.209,0.028-0.39,0.113-0.54,0.227c-2.31-1.105-4.454-2.436-6.359-3.994l-3.345-2.734
		c-0.465-0.383-1.2-0.383-1.665,0L0.349,26.133c-0.465,0.383-0.465,0.992,0,1.374l2.79,2.294c2.549,2.096,4.139,4.872,4.483,7.819
		l0.089,0.836l-2.204,1.799c-0.885,0.723-1.38,1.7-1.38,2.734s0.495,1.998,1.38,2.734s2.07,1.133,3.33,1.133
		c0.105,0,0.209-0.014,0.315-0.028c-0.089,1.077,0.345,2.168,1.349,2.989c0.916,0.75,2.13,1.133,3.33,1.133
		c0.105,0,0.209-0.014,0.315-0.027c0,0.084-0.029,0.17-0.029,0.255c0,1.034,0.495,1.997,1.38,2.733s2.069,1.134,3.33,1.134
		c0.104,0,0.209-0.015,0.315-0.028c-0.089,1.076,0.345,2.168,1.35,2.989c0.915,0.751,2.129,1.134,3.33,1.134
		c1.2,0,2.414-0.383,3.329-1.134l1.634-1.345l2.684,2.209C32.381,59.617,33.596,60,34.795,60c1.201,0,2.415-0.383,3.33-1.133
		c1.005-0.822,1.439-1.913,1.35-2.99c0.104,0,0.209,0.029,0.315,0.029c1.2,0,2.414-0.383,3.329-1.134
		c0.885-0.722,1.38-1.7,1.38-2.733c0-0.086-0.029-0.171-0.029-0.256c0.104,0,0.21,0.028,0.315,0.028c1.199,0,2.414-0.383,3.33-1.134
		c1.004-0.82,1.439-1.912,1.349-2.988c0.104,0,0.21,0.027,0.315,0.027c1.2,0,2.414-0.383,3.33-1.133
		c1.828-1.501,1.828-3.952,0-5.453l-2.52-2.083v-4.999L59.524,28.556z M37.854,22.946c0.181-0.028,0.36-0.085,0.495-0.185
		l8.518-5.241L57.11,27.606l-8.413,5.185c-0.301,0.184-0.465,0.467-0.465,0.778v3.47L35.545,26.7
		c-0.225-0.185-0.524-0.284-0.824-0.284c-0.045,0-0.09,0-0.136,0l-5.624,0.509c-1.545,0.142-2.969-0.708-3.285-1.969l-0.06-0.241
		L37.854,22.946z M7.187,44.334c-0.45-0.368-0.689-0.85-0.689-1.359c0-0.509,0.24-1.006,0.689-1.358l4.994-4.093
		c0.465-0.383,1.064-0.566,1.665-0.566s1.2,0.184,1.665,0.566c0.915,0.75,0.915,1.969,0,2.719l-5.01,4.092
		C9.616,45.07,8.072,45.07,7.187,44.334z M12.166,48.428c-0.916-0.75-0.916-1.969,0-2.72l4.994-4.093
		c0.885-0.723,2.429-0.723,3.329,0c0.45,0.368,0.689,0.85,0.689,1.359c0,0.509-0.24,1.006-0.689,1.359l-4.994,4.093
		C14.58,49.178,13.095,49.178,12.166,48.428z M17.16,52.521c-0.45-0.368-0.689-0.85-0.689-1.358c0-0.51,0.24-1.006,0.689-1.359
		l4.994-4.094c0.465-0.383,1.064-0.566,1.665-0.566s1.2,0.185,1.665,0.566c0.916,0.75,0.916,1.969,0,2.72l-4.994,4.093
		C19.604,53.258,18.045,53.258,17.16,52.521z M25.482,56.615c-0.915,0.75-2.399,0.75-3.329,0c-0.916-0.751-0.916-1.969,0-2.72
		l4.994-4.093c0.915-0.751,2.399-0.751,3.329,0c0.449,0.368,0.689,0.85,0.689,1.359c0,0.509-0.24,1.006-0.689,1.358L25.482,56.615z
		 M36.461,57.479c-0.916,0.751-2.399,0.751-3.33,0l-2.685-2.209l1.68-1.373c0.585-0.481,0.976-1.076,1.2-1.714l3.135,2.577
		C37.375,55.51,37.375,56.729,36.461,57.479L36.461,57.479z M51.427,45.199c-0.915,0.75-2.415,0.75-3.329,0l-4.994-4.094
		c-0.465-0.383-1.201-0.383-1.666,0c-0.464,0.383-0.464,0.992,0,1.373l4.994,4.094c0.916,0.75,0.916,1.969,0,2.719
		c-0.914,0.751-2.398,0.751-3.328,0l-4.994-4.092c-0.465-0.384-1.201-0.384-1.666,0c-0.464,0.383-0.464,0.991,0,1.373l4.994,4.093
		c0.45,0.368,0.689,0.85,0.689,1.359c0,0.509-0.239,1.006-0.689,1.359c-0.914,0.751-2.398,0.751-3.328,0l-4.471-3.669l0,0
		l-0.509-0.426c-0.104-0.085-0.24-0.156-0.376-0.198c-0.18-0.241-0.389-0.452-0.629-0.665c-1.005-0.822-2.339-1.176-3.644-1.105
		c0.089-1.076-0.345-2.168-1.35-2.989c-1.004-0.821-2.339-1.176-3.644-1.104c0-0.086,0.029-0.17,0.029-0.256
		c0-1.034-0.495-1.997-1.38-2.733s-2.069-1.134-3.329-1.134c-0.105,0-0.209,0.014-0.315,0.028c0.089-1.077-0.345-2.167-1.35-2.989
		c-1.83-1.501-4.814-1.501-6.659,0l-0.66,0.538c-0.555-3.116-2.31-6.034-5.039-8.272l-1.934-1.6l10.093-8.287l2.504,2.054
		c2.265,1.87,4.859,3.442,7.678,4.717c0.075,0.028,0.165,0.042,0.24,0.057c0.555,2.237,3.074,3.739,5.849,3.499l5.054-0.453
		l11.982,9.759c0.061,0.086,0.105,0.17,0.195,0.241l4.994,4.093C52.342,43.229,52.342,44.448,51.427,45.199L51.427,45.199z"/>
</g>
</svg>
