<?xml version="1.0" encoding="utf-8"?>
<!-- Generator: Adobe Illustrator 24.0.0, SVG Export Plug-In . SVG Version: 6.00 Build 0)  -->
<svg version="1.1" id="Layer_1" xmlns="http://www.w3.org/2000/svg" xmlns:xlink="http://www.w3.org/1999/xlink" x="0px" y="0px"
	 viewBox="0 0 16 16" style="enable-background:new 0 0 16 16;" xml:space="preserve">
<style type="text/css">
	.st0{opacity:0.15;}
	.st1{fill:#FFFFFF;}
	.st2{opacity:0.2;}
	.st3{opacity:0.4;}
	.st4{fill:#FFFFFF;stroke:#FFFFFF;stroke-width:0.5;stroke-miterlimit:10;}
	.st5{fill:#FFFFFF;stroke:#FFFFFF;stroke-width:0.6;stroke-miterlimit:10;}
	.st6{fill:#F7941D;}
	.st7{fill-rule:evenodd;clip-rule:evenodd;fill:#FFFFFF;}
</style>
<g>
	<g>
		<path class="st6" d="M3.603,15.965c0.136-0.045,0.337-0.333,0.602-0.864c0.084-0.144,0.197-0.348,0.341-0.613
			c0.144-0.265,0.277-0.506,0.398-0.722c0.121-0.216,0.239-0.419,0.352-0.608c0.023-0.03,0.089-0.125,0.199-0.284
			c0.11-0.159,0.191-0.294,0.244-0.404c0.053-0.11,0.079-0.218,0.079-0.324c0-0.151-0.108-0.341-0.324-0.568
			c-0.216-0.227-0.451-0.436-0.705-0.625c-0.254-0.189-0.489-0.39-0.704-0.602C3.87,10.14,3.762,9.966,3.762,9.83
			c0-0.068,0.019-0.154,0.057-0.256c0.038-0.102,0.07-0.18,0.096-0.233c0.027-0.053,0.08-0.144,0.159-0.272
			c0.08-0.129,0.123-0.201,0.131-0.216c0.576-1.038,1.235-1.928,1.977-2.67C6.925,5.44,7.815,4.781,8.853,4.205
			C8.868,4.197,8.94,4.154,9.069,4.074c0.129-0.08,0.22-0.133,0.273-0.159c0.053-0.027,0.131-0.059,0.233-0.097
			S9.762,3.762,9.83,3.762c0.136,0,0.311,0.108,0.523,0.324c0.212,0.216,0.413,0.451,0.602,0.704
			c0.189,0.254,0.398,0.489,0.625,0.705c0.227,0.216,0.417,0.324,0.568,0.324c0.106,0,0.214-0.027,0.324-0.079
			c0.11-0.053,0.244-0.134,0.404-0.244c0.159-0.11,0.254-0.176,0.284-0.199c0.189-0.114,0.392-0.231,0.608-0.352
			c0.216-0.121,0.457-0.254,0.722-0.398c0.265-0.144,0.47-0.257,0.614-0.341c0.53-0.265,0.818-0.466,0.863-0.602
			C15.989,3.55,16,3.47,16,3.364c0-0.205-0.038-0.472-0.114-0.801c-0.076-0.33-0.155-0.589-0.239-0.778
			c-0.159-0.379-0.621-0.78-1.386-1.205C13.55,0.194,12.845,0,12.148,0c-0.204,0-0.403,0.013-0.597,0.04
			c-0.193,0.027-0.411,0.074-0.653,0.142c-0.242,0.068-0.422,0.123-0.54,0.165c-0.117,0.042-0.328,0.119-0.631,0.233
			C9.425,0.693,9.239,0.762,9.171,0.784C8.428,1.05,7.766,1.364,7.182,1.728c-0.97,0.598-1.972,1.415-3.006,2.449
			C3.142,5.21,2.326,6.212,1.728,7.182C1.364,7.765,1.05,8.428,0.784,9.17C0.762,9.239,0.694,9.424,0.58,9.727
			c-0.114,0.303-0.191,0.513-0.233,0.631c-0.042,0.117-0.097,0.297-0.165,0.54c-0.068,0.243-0.116,0.46-0.142,0.653
			C0.013,11.744,0,11.943,0,12.148c0,0.697,0.193,1.402,0.58,2.114c0.424,0.765,0.826,1.227,1.205,1.386
			c0.189,0.084,0.449,0.163,0.778,0.239C2.892,15.962,3.159,16,3.364,16C3.47,16,3.549,15.988,3.603,15.965z"/>
	</g>
</g>
</svg>
