<?xml version="1.0" encoding="utf-8"?>
<!-- Generator: Adobe Illustrator 16.0.0, SVG Export Plug-In . SVG Version: 6.00 Build 0)  -->
<!DOCTYPE svg PUBLIC "-//W3C//DTD SVG 1.1//EN" "http://www.w3.org/Graphics/SVG/1.1/DTD/svg11.dtd">
<svg version="1.1" id="Layer_1" xmlns="http://www.w3.org/2000/svg" xmlns:xlink="http://www.w3.org/1999/xlink" x="0px" y="0px"
	 width="60px" height="60px" viewBox="0 0 60 60" enable-background="new 0 0 60 60" xml:space="preserve">
<g>
	<g>
		<path fill="#F7941D" d="M4.856,37.305c-0.808-0.533-1.816-1.196-1.34-4.748c0.032-0.24-0.077-0.478-0.278-0.612
			c-0.074-0.048-0.746-0.477-1.479-0.477c-0.481,0-0.895,0.181-1.197,0.521c-0.503,0.566-0.665,1.537-0.495,2.969
			c0.479,4.037,2.411,4.738,2.981,4.855c0.271,0.131,1.038,0.47,1.692,0.47c0.531,0,0.833-0.218,0.992-0.401
			C5.972,39.604,6.063,39.23,6,38.766C5.892,37.983,5.341,37.621,4.856,37.305z"/>
		<path fill="#F7941D" d="M13.308,36.657c0-0.276-0.182-0.523-0.447-0.604c-0.265-0.083-0.553,0.021-0.709,0.252
			c-0.451,0.67-0.885,1.039-1.221,1.039c-0.797,0-1.737-2.055-2.11-3.537c-0.077-0.308-0.367-0.512-0.687-0.474
			c-0.302,0.035-0.603,0.054-0.894,0.054c-1.568,0-2.449-0.524-2.454-0.527c-0.194-0.122-0.439-0.131-0.641-0.019
			c-0.201,0.11-0.328,0.323-0.328,0.554c0,2.098,1.605,4.523,2.69,5.504c1.553,1.398,2.842,2.079,3.946,2.079
			C12.706,40.978,13.308,38.262,13.308,36.657z"/>
		<path fill="#F7941D" d="M6.815,32.996L6.815,32.996c1.493,0,3.229-0.514,5.161-1.522c6.171-3.225,33.059-17.514,33.312-17.647
			c0.331-0.162,1.991-1.034,2.028-2.259c0.013-0.424-0.163-1.037-1.072-1.553l-2.127-1.206c-0.19-0.108-0.42-0.11-0.61-0.007
			L3.302,30.357c-0.15,0.081-0.261,0.217-0.308,0.381s-0.027,0.34,0.058,0.487C3.09,31.297,4.083,32.996,6.815,32.996z"/>
		<g>
			<path fill="#F7941D" d="M46.909,16.639l-1.134-2.057c-0.168-0.304-0.547-0.414-0.854-0.251L11.879,32.129
				c-0.177,0.096-0.299,0.271-0.326,0.471c-0.027,0.2,0.042,0.401,0.19,0.541c0.03,0.029,3.044,2.953,2.244,5.6
				c-0.074,0.246,0.006,0.51,0.203,0.672c0.115,0.094,0.258,0.145,0.401,0.145c0.101,0,0.203-0.024,0.296-0.072l27.653-14.678
				c0.215-0.113,0.344-0.339,0.335-0.58c-0.001-0.038-0.085-3.818,3.858-6.776C46.987,17.26,47.063,16.914,46.909,16.639z"/>
			<path fill="#F7941D" d="M36.271,28.655l-9.29,5.036c-0.22,0.119-0.349,0.357-0.329,0.607c0.088,1.055,2.731,5.268,6.356,5.268
				c1.125,0,2.235-0.404,3.302-1.197c1.463-1.092,2.303-2.434,2.5-3.99c0.366-2.899-1.662-5.456-1.748-5.563
				C36.872,28.578,36.539,28.509,36.271,28.655z M33.24,36.863c-1.209,0-2.193-0.982-2.193-2.193c0-1.208,0.983-2.192,2.193-2.192
				c1.207,0,2.191,0.984,2.191,2.192C35.432,35.881,34.447,36.863,33.24,36.863z"/>
			<circle fill="#F7941D" cx="33.24" cy="34.67" r="0.929"/>
		</g>
		<path fill="#F7941D" d="M54.283,40.279l-2.979,0.07c-0.344,0.01-0.619,0.289-0.619,0.631v2.203h-9.719
			c-4.302,0-5.531-2.946-5.58-3.066c-0.094-0.244-0.328-0.404-0.59-0.404h-3.119c-0.35,0-0.632,0.281-0.632,0.631
			c0,5.02,5.102,6.801,9.47,6.801l10.1-0.018l-0.018,1.504c-0.001,0.168,0.066,0.33,0.184,0.451c0.119,0.12,0.279,0.187,0.449,0.187
			h3.066c0.35,0,0.631-0.282,0.631-0.631v-7.729c0-0.172-0.067-0.334-0.191-0.453C54.617,40.341,54.438,40.278,54.283,40.279z"/>
		<path fill="#F7941D" d="M59.369,38.305h-3.511c-0.349,0-0.631,0.281-0.631,0.631v11.707c0,0.351,0.282,0.631,0.631,0.631h3.511
			c0.349,0,0.631-0.281,0.631-0.631V38.936C60,38.585,59.718,38.305,59.369,38.305z"/>
	</g>
</g>
</svg>
