<?xml version="1.0" encoding="utf-8"?>
<!-- Generator: Adobe Illustrator 16.0.0, SVG Export Plug-In . SVG Version: 6.00 Build 0)  -->
<!DOCTYPE svg PUBLIC "-//W3C//DTD SVG 1.1//EN" "http://www.w3.org/Graphics/SVG/1.1/DTD/svg11.dtd">
<svg version="1.1" id="Layer_1" xmlns="http://www.w3.org/2000/svg" xmlns:xlink="http://www.w3.org/1999/xlink" x="0px" y="0px"
	 width="60px" height="60px" viewBox="0 0 60 60" enable-background="new 0 0 60 60" xml:space="preserve">
<g>
	<path fill="#F7941D" d="M28.242,33.09h3.516v3.516h-3.516V33.09z"/>
	<path fill="#F7941D" d="M28.242,22.442h3.516v7.134h-3.516V22.442z"/>
	<path fill="#F7941D" d="M42.305,22.442h3.631v7.134h-3.631V22.442z"/>
	<path fill="#F7941D" d="M49.454,22.442h3.517v7.134h-3.517V22.442z"/>
	<path fill="#F7941D" d="M12.364,22.456c1.002,0,1.816-0.814,1.816-1.816s-0.816-1.818-1.816-1.818s-1.816,0.814-1.816,1.816
		C10.548,21.64,11.362,22.456,12.364,22.456z"/>
	<path fill="#F7941D" d="M0,40.122V60h3.516v-3.516h17.696V60h3.516V40.122H0z"/>
	<path fill="#F7941D" d="M23.532,8.276L12.364,0L1.194,8.276H23.532z"/>
	<path fill="#F7941D" d="M0,33.09h24.726v3.516H0V33.09z"/>
	<path fill="#F7941D" d="M24.726,29.574V11.792H0v17.784h24.726V29.574z M12.364,15.306c2.94,0,5.332,2.392,5.332,5.332
		s-2.392,5.332-5.332,5.332c-2.94,0-5.332-2.392-5.332-5.332S9.424,15.306,12.364,15.306z"/>
	<path fill="#F7941D" d="M56.484,11.792H60v7.134h-3.516V11.792z"/>
	<path fill="#F7941D" d="M35.273,11.792h3.517v7.134h-3.517V11.792z"/>
	<path fill="#F7941D" d="M58.807,8.276L47.637,0L36.468,8.276H58.807z"/>
	<path fill="#F7941D" d="M35.273,40.122V60h3.517v-3.516h17.696V60H60V40.122H35.273z"/>
	<path fill="#F7941D" d="M56.484,22.442H60v7.134h-3.516V22.442z"/>
	<path fill="#F7941D" d="M35.273,22.442h3.517v7.134h-3.517V22.442z"/>
	<path fill="#F7941D" d="M35.273,33.09H60v3.516H35.273V33.09z"/>
</g>
</svg>
