<?xml version="1.0" encoding="utf-8"?>
<!-- Generator: Adobe Illustrator 16.0.0, SVG Export Plug-In . SVG Version: 6.00 Build 0)  -->
<!DOCTYPE svg PUBLIC "-//W3C//DTD SVG 1.1//EN" "http://www.w3.org/Graphics/SVG/1.1/DTD/svg11.dtd">
<svg version="1.1" id="Layer_1" xmlns="http://www.w3.org/2000/svg" xmlns:xlink="http://www.w3.org/1999/xlink" x="0px" y="0px"
	 width="60px" height="60px" viewBox="0 0 60 60" enable-background="new 0 0 60 60" xml:space="preserve">
<g>
	<g>
		<g>
			<path fill="#F7941D" d="M6.816,32.906C6,36.645,8.61,40.311,12.702,41.116c4.134,0.819,8.224-1.587,9.118-5.36l1.258-10.536
				c-4.134-2.048-2.62,6.44-9.76,5.034C8.414,29.286,7.076,32.152,6.816,32.906z"/>
			<path fill="#F7941D" d="M59.904,45.557c-0.324-0.885-1.375-1.375-2.342-1.072l-5.15,1.563l-3.238-8.894
				c2.66-1.192,4.84-3.09,6.192-5.553c1.632-2.976,1.897-6.352,0.69-9.647L47.596,4.1l-22.5,6.832l1.504,5.584L7.372,12.72
				l-6.34,18.725C0.262,34.7,0.926,38.032,2.9,40.828c1.632,2.314,4.026,3.986,6.81,4.906l-2.17,9.16L2.244,53.85
				c-0.996-0.184-1.986,0.383-2.202,1.299c-0.216,0.914,0.418,1.812,1.42,2.01l7.09,1.398c0.006,0,0.008,0.004,0.012,0.004
				c0.008,0.002,0.018,0,0.026,0.002l7.092,1.397c0.134,0.028,0.264,0.04,0.394,0.04c0.854,0,1.62-0.542,1.808-1.334
				c0.214-0.914-0.42-1.813-1.42-2.01l-5.3-1.047l2.162-9.121c0.354,0.025,0.71,0.054,1.064,0.054
				c6.366,0,11.968-4.132,13.338-9.958l1.504-10.288l0.988,3.664c1.858,5.101,7.057,8.526,12.938,8.526
				c0.844,0,1.68-0.092,2.508-0.236l3.23,8.868l-5.141,1.56c-0.972,0.295-1.498,1.252-1.176,2.139
				c0.258,0.709,0.982,1.158,1.758,1.158c0.194,0,0.393-0.026,0.584-0.086l13.805-4.19C59.702,47.4,60.229,46.441,59.904,45.557z
				 M24.082,36.002c-1.128,4.78-6.524,7.99-11.812,6.946l0,0h-0.004c-2.596-0.511-4.816-1.914-6.254-3.95
				C4.574,36.96,4.09,34.534,4.61,32.307l5.296-15.625l16.514,3.26L24.082,36.002z M33.775,29.02L29.51,13.156l16.034-4.87
				l7.052,14.872c0.84,2.3,0.645,4.762-0.541,6.928c-1.191,2.166-3.232,3.782-5.755,4.546c-1.021,0.312-2.077,0.468-3.142,0.468
				C38.876,35.102,35.09,32.605,33.775,29.02z"/>
			<path fill="#F7941D" d="M50.54,24.112c-0.356-0.722-2.017-3.44-6.778-1.996c-6.938,2.106-6.436-6.484-10.298-4.04l2.494,10.346
				c1.336,3.662,5.688,5.654,9.696,4.434C49.628,31.648,51.788,27.746,50.54,24.112z"/>
			<path fill="#F7941D" d="M18.62,3.824c1.154-0.058,2.04-0.958,1.978-2.014s-1.052-1.866-2.204-1.808
				c-1.158,0.058-2.046,0.96-1.984,2.016C16.474,3.072,17.464,3.882,18.62,3.824z"/>
			<path fill="#F7941D" d="M26.72,7.166c1.152-0.058,2.04-0.958,1.978-2.014c-0.062-1.054-1.052-1.864-2.204-1.806
				c-1.158,0.058-2.046,0.958-1.982,2.014C24.572,6.414,25.562,7.222,26.72,7.166z"/>
			<path fill="#F7941D" d="M17.452,8.772c0.064,1.056,1.052,1.866,2.206,1.808c1.158-0.056,2.046-0.958,1.984-2.014
				c-0.064-1.054-1.052-1.864-2.21-1.806C18.278,6.816,17.39,7.718,17.452,8.772z"/>
		</g>
	</g>
</g>
</svg>
