<?xml version="1.0" encoding="utf-8"?>
<!-- Generator: Adobe Illustrator 16.0.0, SVG Export Plug-In . SVG Version: 6.00 Build 0)  -->
<!DOCTYPE svg PUBLIC "-//W3C//DTD SVG 1.1//EN" "http://www.w3.org/Graphics/SVG/1.1/DTD/svg11.dtd">
<svg version="1.1" id="Layer_1" xmlns="http://www.w3.org/2000/svg" xmlns:xlink="http://www.w3.org/1999/xlink" x="0px" y="0px"
	 width="60px" height="60px" viewBox="0 0 60 60" enable-background="new 0 0 60 60" xml:space="preserve">
<g>
	<g>
		<g>
			<path fill="#F7941D" stroke="#F7941D" stroke-width="0.6" stroke-miterlimit="10" d="M52.425,17.157
				c0.42,0.249,0.96,0.087,1.2-0.361c0.648-1.205,0.984-2.585,0.984-3.979c0-4.538-3.566-8.231-7.947-8.231
				s-7.945,3.693-7.945,8.231c0,4.539,3.564,8.231,7.945,8.231c1.26,0,2.473-0.299,3.59-0.882c0.432-0.224,0.6-0.771,0.384-1.219
				s-0.744-0.622-1.177-0.398c-0.875,0.46-1.812,0.696-2.797,0.696c-3.408,0-6.193-2.872-6.193-6.416s2.773-6.416,6.193-6.416
				s6.193,2.872,6.193,6.416c0,1.082-0.264,2.151-0.768,3.096C51.849,16.361,52.005,16.908,52.425,17.157L52.425,17.157z"/>
			<path fill="#F7941D" stroke="#F7941D" stroke-width="0.6" stroke-miterlimit="10" d="M46.664,3.32
				c0.479,0,0.875-0.41,0.875-0.908V0.908C47.541,0.41,47.144,0,46.664,0c-0.48,0-0.877,0.41-0.877,0.908v1.504
				C45.775,2.91,46.172,3.32,46.664,3.32z"/>
			<path fill="#F7941D" stroke="#F7941D" stroke-width="0.6" stroke-miterlimit="10" d="M50.673,4.364
				c0.12,0.062,0.252,0.087,0.384,0.087c0.324,0,0.637-0.187,0.792-0.509l0.636-1.355c0.217-0.447,0.024-0.995-0.408-1.218
				C51.645,1.145,51.117,1.343,50.9,1.79l-0.636,1.355C50.049,3.593,50.24,4.14,50.673,4.364L50.673,4.364z"/>
			<path fill="#F7941D" stroke="#F7941D" stroke-width="0.6" stroke-miterlimit="10" d="M54.537,7.448
				c0.193,0,0.385-0.063,0.553-0.199l1.141-0.933c0.383-0.311,0.443-0.883,0.144-1.281s-0.853-0.46-1.236-0.149l-1.14,0.933
				C53.613,6.13,53.554,6.702,53.854,7.1C54.021,7.323,54.285,7.448,54.537,7.448z"/>
			<path fill="#F7941D" stroke="#F7941D" stroke-width="0.6" stroke-miterlimit="10" d="M55.57,11.003
				c0.096,0.422,0.455,0.709,0.852,0.709c0.061,0,0.132-0.012,0.191-0.025l1.416-0.336c0.469-0.112,0.769-0.597,0.66-1.094
				c-0.107-0.484-0.576-0.795-1.056-0.684l-1.416,0.336C55.75,10.021,55.462,10.505,55.57,11.003z"/>
			<path fill="#F7941D" stroke="#F7941D" stroke-width="0.6" stroke-miterlimit="10" d="M57.755,16.734
				c0.396,0,0.769-0.286,0.853-0.709c0.107-0.484-0.192-0.982-0.66-1.094l-1.416-0.336c-0.469-0.112-0.948,0.199-1.057,0.684
				c-0.107,0.484,0.192,0.982,0.66,1.094l1.416,0.336C57.622,16.722,57.684,16.734,57.755,16.734z"/>
			<path fill="#F7941D" stroke="#F7941D" stroke-width="0.6" stroke-miterlimit="10" d="M53.734,20.377l1.127,0.945
				c0.168,0.136,0.36,0.199,0.553,0.199c0.252,0,0.516-0.112,0.684-0.336c0.301-0.398,0.24-0.97-0.132-1.281l-1.128-0.945
				c-0.385-0.311-0.936-0.249-1.236,0.136C53.302,19.495,53.361,20.066,53.734,20.377L53.734,20.377z"/>
			<path fill="#F7941D" stroke="#F7941D" stroke-width="0.6" stroke-miterlimit="10" d="M50.313,21.695
				c-0.432,0.212-0.624,0.758-0.408,1.219l0.625,1.355c0.155,0.323,0.467,0.522,0.791,0.522c0.133,0,0.252-0.025,0.385-0.087
				c0.432-0.211,0.623-0.758,0.408-1.218l-0.625-1.355C51.273,21.67,50.744,21.483,50.313,21.695z"/>
			<path fill="#F7941D" stroke="#F7941D" stroke-width="0.6" stroke-miterlimit="10" d="M46.256,22.552
				c-0.48,0-0.876,0.41-0.876,0.908v1.504c0,0.498,0.396,0.908,0.876,0.908l0,0c0.48,0,0.876-0.41,0.876-0.908V23.46
				C47.132,22.964,46.736,22.552,46.256,22.552L46.256,22.552z"/>
			<path fill="#F7941D" stroke="#F7941D" stroke-width="0.6" stroke-miterlimit="10" d="M41.07,21.932l-0.636,1.355
				c-0.216,0.447-0.024,0.995,0.408,1.218c0.12,0.063,0.252,0.087,0.384,0.087c0.324,0,0.636-0.187,0.792-0.509l0.636-1.355
				c0.217-0.447,0.024-0.995-0.408-1.219C41.803,21.285,41.287,21.471,41.07,21.932L41.07,21.932z"/>
			<path fill="#F7941D" stroke="#F7941D" stroke-width="0.6" stroke-miterlimit="10" d="M37.843,18.612l-1.14,0.933
				c-0.385,0.311-0.444,0.882-0.145,1.28c0.168,0.224,0.432,0.348,0.684,0.348c0.192,0,0.385-0.062,0.541-0.198l1.139-0.933
				c0.385-0.311,0.445-0.882,0.145-1.281C38.767,18.363,38.215,18.288,37.843,18.612L37.843,18.612z"/>
			<path fill="#F7941D" stroke="#F7941D" stroke-width="0.6" stroke-miterlimit="10" d="M35.094,16.287
				c0.06,0,0.132-0.012,0.191-0.025l1.416-0.336c0.469-0.112,0.768-0.597,0.66-1.094c-0.107-0.484-0.576-0.795-1.056-0.684
				l-1.416,0.336c-0.468,0.112-0.769,0.597-0.66,1.094C34.326,16,34.686,16.287,35.094,16.287L35.094,16.287z"/>
			<path fill="#F7941D" stroke="#F7941D" stroke-width="0.6" stroke-miterlimit="10" d="M34.998,10.904l1.416,0.336
				c0.071,0.012,0.131,0.025,0.203,0.025c0.396,0,0.756-0.286,0.852-0.709c0.109-0.484-0.18-0.982-0.659-1.094l-1.416-0.336
				c-0.468-0.112-0.948,0.187-1.056,0.684C34.229,10.307,34.529,10.791,34.998,10.904z"/>
			<path fill="#F7941D" stroke="#F7941D" stroke-width="0.6" stroke-miterlimit="10" d="M36.99,5.955L38.119,6.9
				c0.168,0.136,0.359,0.199,0.551,0.199c0.252,0,0.517-0.112,0.685-0.336c0.3-0.398,0.24-0.97-0.132-1.281l-1.128-0.944
				c-0.384-0.311-0.937-0.249-1.236,0.137C36.545,5.06,36.605,5.632,36.99,5.955z"/>
			<path fill="#F7941D" stroke="#F7941D" stroke-width="0.6" stroke-miterlimit="10" d="M41.479,3.73
				c0.156,0.323,0.469,0.522,0.792,0.522c0.132,0,0.252-0.025,0.372-0.087c0.443-0.211,0.624-0.758,0.42-1.219l-0.624-1.354
				c-0.204-0.46-0.731-0.647-1.176-0.436c-0.444,0.212-0.624,0.758-0.42,1.219L41.479,3.73z"/>
			<path fill="#F7941D" stroke="#F7941D" stroke-width="0.6" stroke-miterlimit="10" d="M18.014,55.064
				c0.18,0.088,0.36,0.125,0.54,0.125c0.396,0,0.78-0.199,1.032-0.572l8.247-12.309c0.324-0.484,0.36-1.105,0.096-1.629
				c-0.264-0.522-0.78-0.846-1.344-0.846H24.76l1.656-6.104c0.108-0.398,0.036-0.809-0.216-1.145
				c-0.24-0.322-0.612-0.521-1.008-0.521h-5.461c-0.576,0-1.068,0.398-1.224,0.969l-2.761,10.681
				c-0.12,0.472-0.024,0.97,0.264,1.368c0.288,0.385,0.732,0.621,1.2,0.621h2.136l-2.028,7.833
				C17.162,54.169,17.45,54.791,18.014,55.064L18.014,55.064z M17.534,43.887l2.58-9.996h4.429l-1.62,6.03
				c-0.108,0.422-0.036,0.857,0.216,1.205c0.252,0.349,0.636,0.547,1.056,0.547h1.932l-6.361,9.499l1.464-5.633
				c0.108-0.398,0.024-0.809-0.216-1.131c-0.24-0.323-0.612-0.51-0.996-0.51L17.534,43.887L17.534,43.887z"/>
			<path fill="#F7941D" stroke="#F7941D" stroke-width="0.6" stroke-miterlimit="10" d="M52.257,51.471
				c0.396,0.074,0.792,0.113,1.176,0.113c1.716,0,3.409-0.696,4.646-1.989c1.632-1.69,2.279-4.103,1.728-6.427
				c-0.096-0.398-0.396-0.722-0.78-0.809c-2.256-0.572-4.572,0.099-6.205,1.789c-1.523,1.579-2.195,3.855-1.812,6.043l-1.093,1.131
				l-1.092-1.131c0.385-2.188-0.287-4.451-1.812-6.043c-1.632-1.69-3.961-2.361-6.205-1.789c-0.384,0.099-0.685,0.41-0.78,0.809
				c-0.552,2.337,0.096,4.736,1.729,6.427c1.248,1.293,2.929,1.989,4.645,1.989c0.396,0,0.793-0.037,1.176-0.113l1.465,1.566v5.147
				H37.687V54.28c0-0.497-0.396-0.907-0.876-0.907s-0.876,0.41-0.876,0.907v3.904H7.884v-21.11l14.02-11.736l4.393,3.68
				c0.372,0.311,0.936,0.261,1.236-0.136c0.3-0.385,0.252-0.97-0.132-1.281l-4.549-3.804c-0.552-0.46-1.356-0.46-1.908,0
				L3.167,38.69l-1.308-1.679l19.384-16.25c0.384-0.323,0.924-0.323,1.308,0l19.396,16.237l-1.308,1.679l-10.034-8.404
				c-0.372-0.311-0.936-0.261-1.236,0.136c-0.3,0.385-0.252,0.97,0.132,1.281l6.42,5.37v12.88c0,0.498,0.396,0.908,0.877,0.908
				c0.479,0,0.875-0.41,0.875-0.908V38.529l2.053,1.715c0.275,0.237,0.611,0.349,0.947,0.349c0.445,0,0.889-0.198,1.188-0.585
				l1.608-2.064c0.527-0.67,0.42-1.665-0.229-2.213l-2.713-2.275l1.225-1.566c0.252-0.323,0.371-0.733,0.324-1.156
				c-0.049-0.423-0.24-0.796-0.553-1.058L28.719,18.946c-0.648-0.546-1.608-0.435-2.136,0.237l-1.224,1.566l-1.692-1.417
				c-1.02-0.857-2.496-0.857-3.517,0L0.563,35.744c-0.312,0.26-0.516,0.633-0.552,1.057c-0.048,0.422,0.072,0.834,0.324,1.156
				l1.608,2.064c0.528,0.67,1.488,0.783,2.136,0.236l2.052-1.716v19.644H2.627c-0.48,0-0.876,0.41-0.876,0.908
				C1.751,59.591,2.147,60,2.627,60h52.402c0.48,0,0.877-0.41,0.877-0.908c0-0.497-0.396-0.907-0.877-0.907h-4.236v-5.147
				L52.257,51.471z M54.07,45.441c1.092-1.131,2.615-1.641,4.129-1.404c0.24,1.566-0.252,3.133-1.356,4.275
				c-0.792,0.82-1.823,1.318-2.905,1.431l2.112-2.188c0.349-0.359,0.349-0.933,0-1.293c-0.349-0.359-0.899-0.361-1.248,0
				l-2.112,2.189C52.798,47.331,53.277,46.249,54.07,45.441L54.07,45.441z M44.959,46.2c-0.348-0.361-0.899-0.361-1.248,0
				c-0.348,0.36-0.348,0.933,0,1.292l2.173,2.251c-1.08-0.112-2.124-0.608-2.905-1.431c-1.092-1.131-1.584-2.709-1.355-4.275
				c1.512-0.249,3.024,0.26,4.129,1.404c0.791,0.82,1.271,1.89,1.38,3.01L44.959,46.2z M37.375,28.558l2.856,2.4l-1.067,1.38
				l-2.857-2.4L37.375,28.558z M32.25,24.269l3.756,3.145l-1.067,1.38l-3.757-3.145L32.25,24.269z M27.796,20.539l3.084,2.585
				l-1.067,1.38l-3.085-2.585L27.796,20.539z"/>
		</g>
	</g>
</g>
</svg>
