<?xml version="1.0" encoding="utf-8"?>
<!-- Generator: Adobe Illustrator 24.0.0, SVG Export Plug-In . SVG Version: 6.00 Build 0)  -->
<svg version="1.1" id="Layer_1" xmlns="http://www.w3.org/2000/svg" xmlns:xlink="http://www.w3.org/1999/xlink" x="0px" y="0px"
	 viewBox="0 0 18 18" style="enable-background:new 0 0 18 18;" xml:space="preserve">
<style type="text/css">
	.st0{opacity:0.15;}
	.st1{fill:#FFFFFF;}
	.st2{opacity:0.2;}
	.st3{opacity:0.4;}
	.st4{fill:#FFFFFF;stroke:#FFFFFF;stroke-width:0.5;stroke-miterlimit:10;}
	.st5{fill:#FFFFFF;stroke:#FFFFFF;stroke-width:0.6;stroke-miterlimit:10;}
	.st6{fill:#F7941D;}
</style>
<g>
	<g>
		<g>
			<path class="st1" d="M0,6.066V18h1.929V7.678c0-0.178,0.144-0.323,0.321-0.323h13.5c0.178,0,0.321,0.144,0.321,0.323V18H18V6.066
				H0z M1.286,10.259H0.643V8.323h0.643V10.259z M17.357,10.259h-0.643V8.323h0.643V10.259z"/>
		</g>
	</g>
	<g>
		<g>
			<polygon class="st1" points="9,0 0.756,5.42 17.244,5.42 			"/>
		</g>
	</g>
	<g>
		<g>
			<path class="st1" d="M12.536,15.742H13.5c0-0.178-0.144-0.323-0.321-0.323H4.821c-0.177,0-0.321,0.145-0.321,0.323h0.964v0.645
				H4.5v0.323h1.607h5.786H13.5v-0.323h-0.964V15.742z"/>
		</g>
	</g>
	<g>
		<g>
			<path class="st1" d="M12.214,17.032v0.645c0,0.178,0.144,0.323,0.321,0.323h0.643c0.177,0,0.321-0.145,0.321-0.323v-0.645H12.214
				z"/>
		</g>
	</g>
	<g>
		<g>
			<path class="st1" d="M4.5,17.032v0.645C4.5,17.855,4.644,18,4.821,18h0.643c0.177,0,0.321-0.145,0.321-0.323v-0.645H4.5z"/>
		</g>
	</g>
	<g>
		<g>
			<path class="st1" d="M10.929,12.194H7.071c-1.063,0-1.929,0.868-1.929,1.935v0.645h7.714v-0.645
				C12.857,13.062,11.992,12.194,10.929,12.194z"/>
		</g>
	</g>
	<g>
		<g>
			<path class="st1" d="M13.821,14.452H13.5c-0.178,0-0.321,0.144-0.321,0.323c0,0.178,0.144,0.323,0.321,0.323h0.321
				c0.178,0,0.321-0.144,0.321-0.323C14.143,14.596,13.999,14.452,13.821,14.452z"/>
		</g>
	</g>
	<g>
		<g>
			<path class="st1" d="M4.5,14.452H4.179c-0.178,0-0.321,0.144-0.321,0.323c0,0.178,0.144,0.323,0.321,0.323H4.5
				c0.178,0,0.321-0.144,0.321-0.323C4.821,14.596,4.678,14.452,4.5,14.452z"/>
		</g>
	</g>
	<g>
		<g>
			<path class="st1" d="M14.786,8.646H3.214c-0.178,0-0.321,0.144-0.321,0.323v1.29c0,0.178,0.144,0.323,0.321,0.323h11.571
				c0.178,0,0.321-0.144,0.321-0.323v-1.29C15.107,8.79,14.963,8.646,14.786,8.646z"/>
		</g>
	</g>
</g>
</svg>
