<?xml version="1.0" encoding="utf-8"?>
<!-- Generator: Adobe Illustrator 16.0.0, SVG Export Plug-In . SVG Version: 6.00 Build 0)  -->
<!DOCTYPE svg PUBLIC "-//W3C//DTD SVG 1.1//EN" "http://www.w3.org/Graphics/SVG/1.1/DTD/svg11.dtd">
<svg version="1.1" id="Layer_1" xmlns="http://www.w3.org/2000/svg" xmlns:xlink="http://www.w3.org/1999/xlink" x="0px" y="0px"
	 width="60px" height="60px" viewBox="0 0 60 60" enable-background="new 0 0 60 60" xml:space="preserve">
<g>
	<path fill="#F7941D" d="M38.79,49.336v7.148H17.696v-7.289c-0.562,0.106-1.16,0.141-1.758,0.141s-1.196-0.036-1.758-0.141v7.289
		H1.758C0.786,56.484,0,57.27,0,58.242C0,59.214,0.786,60,1.758,60h56.368C59.096,60,60,59.214,60,58.242
		c0-0.973-0.904-1.758-1.876-1.758H42.305v-7.148H38.79z"/>
	<path fill="#F7941D" d="M17.132,0.456c-0.668-0.598-1.722-0.598-2.39,0C14.286,0.878,4.214,10.472,3.67,18.764l10.508,10.508
		V15.938c0-0.984,0.774-1.758,1.758-1.758s1.758,0.774,1.758,1.758v7.034l9.882-7.41c0-0.004-0.002-0.006-0.002-0.01
		C25.254,8.204,17.52,0.808,17.132,0.456z"/>
	<path fill="#F7941D" d="M17.696,36.891L30.95,26.272c-0.598-2.004-1.546-3.902-2.778-5.59c0.036-0.386,0.07-0.738,0.07-1.196
		v-0.032c0,0,0-0.002,0-0.004l-10.546,7.91V36.891z"/>
	<path fill="#F7941D" d="M14.18,34.244L2.5,22.564C0.958,25.338,0,28.494,0,31.758c0,9.036,6.27,16.488,14.18,17.438V34.244z"/>
	<path fill="#F7941D" d="M31.758,31.758c0-0.527-0.035-1.02-0.07-1.546L17.696,41.393v7.803
		C25.606,48.246,31.758,40.794,31.758,31.758z"/>
	<path fill="#F7941D" d="M55.91,24.304c0.316-0.984,0.456-2.038,0.456-3.094c0-4.676-2.988-8.648-7.278-9.984l-6.783,5.626v16.839
		L55.91,24.304z"/>
	<path fill="#F7941D" d="M40.546,0c-4.853,0-8.79,4.054-8.79,8.906c0,0.774,0.105,1.546,0.316,2.286
		c-0.738,0.246-1.406,0.562-2.038,0.95c1.021,2.356,1.722,4.852,1.722,7.312V19.7c1.02,1.582,1.828,3.304,2.391,5.132
		c0,0.002,0,0.002,0.002,0.004l4.64,2.32V15.938c0-0.562,0.282-1.09,0.737-1.442l9.526-7.77C48.105,2.93,44.66,0,40.546,0z"/>
	<path fill="#F7941D" d="M60,37.032c0-3.271-1.452-6.398-3.738-8.648l-13.955,9.562v11.391h5.273C54.363,49.336,60,43.816,60,37.032
		z"/>
	<path fill="#F7941D" d="M38.79,31.086l-3.656-1.828c0,0,0,0.002,0,0.004c0.106,0.844,0.14,1.652,0.14,2.496
		c0,6.574-2.777,12.48-7.135,16.348c1.652,0.809,3.48,1.23,5.379,1.23h5.274v-18.25H38.79z"/>
</g>
</svg>
