<?xml version="1.0" encoding="utf-8"?>
<!-- Generator: Adobe Illustrator 16.0.0, SVG Export Plug-In . SVG Version: 6.00 Build 0)  -->
<!DOCTYPE svg PUBLIC "-//W3C//DTD SVG 1.1//EN" "http://www.w3.org/Graphics/SVG/1.1/DTD/svg11.dtd">
<svg version="1.1" id="Layer_1" xmlns="http://www.w3.org/2000/svg" xmlns:xlink="http://www.w3.org/1999/xlink" x="0px" y="0px"
	 width="60px" height="60px" viewBox="0 0 60 60" enable-background="new 0 0 60 60" xml:space="preserve">
<g>
	<g>
		<g>
			<path fill="#F7941D" d="M58.105,11.88H56.51c0-2.985,0-2.339,0-5.342c0-0.553-0.448-1-1.001-1h-2.733c-0.552,0-1,0.448-1,1
				c0,3.003,0,2.357,0,5.342h-3.494c0.146-1.531-0.982-2.871-2.474-3.028c-1.536-0.162-2.897,0.961-3.058,2.474l-0.058,0.556h-4.813
				c-1.422,3.067-4.486,5.047-7.884,5.047c-3.442,0-6.483-2.025-7.883-5.047h-4.797l-0.058-0.556
				c-0.161-1.523-1.535-2.634-3.058-2.474c-1.492,0.159-2.619,1.497-2.473,3.028H8.223c0-2.985,0-2.339,0-5.342c0-0.553-0.448-1-1-1
				H4.489c-0.553,0-1,0.448-1,1c0,3.003,0,2.357,0,5.342H1.893C0.848,11.88,0,12.728,0,13.775c0,1.045,0.848,1.893,1.893,1.893
				h1.596c0,2.984,0,2.339,0,5.342c0,0.552,0.448,1,1,1h2.733c0.552,0,1-0.448,1-1c0-3.003,0-2.358,0-5.342h3.901
				c0.119,1.133,0.967,9.145,1.092,10.33c0.252,2.378,3.246,3.382,4.859,1.536l3.907-4.473v10.638l-10.11,4.111
				c-1.18,0.479-2.021,1.545-2.214,2.803L7.64,53.839c-0.3,1.976,1.055,3.817,3.03,4.12c1.975,0.303,3.817-1.055,4.12-3.029
				l1.708-11.195l9.354-3.8h8.303l9.354,3.8l1.708,11.195c0.301,1.975,2.146,3.33,4.12,3.029c1.973-0.301,3.33-2.145,3.029-4.12
				l-2.018-13.226c-0.192-1.26-1.032-2.323-2.214-2.803L37.941,33.67V22.968l3.991,4.568c1.569,1.795,4.6,0.905,4.858-1.536
				c0.125-1.184,0.973-9.199,1.092-10.331h3.893c0,2.985,0,2.339,0,5.343c0,0.552,0.448,1,1,1h2.733c0.553,0,1.001-0.448,1.001-1
				c0-3.003,0-2.358,0-5.343h1.596c1.045,0,1.893-0.847,1.893-1.893C60,12.728,59.152,11.88,58.105,11.88z M18.077,19.082
				c-0.149-1.419-0.213-2.011-0.36-3.414h3.343C19.848,17.055,19.305,17.676,18.077,19.082z M41.931,19.082
				c-1.382-1.581,0.394,0.45-2.983-3.414h3.344C42.012,18.318,42.08,17.665,41.931,19.082z"/>
		</g>
	</g>
	<g>
		<g>
			<circle fill="#F7941D" cx="29.995" cy="8.244" r="6.244"/>
		</g>
	</g>
</g>
</svg>
