<?xml version="1.0" encoding="utf-8"?>
<!-- Generator: Adobe Illustrator 16.0.0, SVG Export Plug-In . SVG Version: 6.00 Build 0)  -->
<!DOCTYPE svg PUBLIC "-//W3C//DTD SVG 1.1//EN" "http://www.w3.org/Graphics/SVG/1.1/DTD/svg11.dtd">
<svg version="1.1" id="Layer_1" xmlns="http://www.w3.org/2000/svg" xmlns:xlink="http://www.w3.org/1999/xlink" x="0px" y="0px"
	 width="60px" height="60px" viewBox="0 0 60 60" enable-background="new 0 0 60 60" xml:space="preserve">
<g>
	<g id="XMLID_7_">
		<path id="XMLID_12_" fill="#F7941D" d="M26.841,7.98c1.14,0,2.062-0.924,2.062-2.062s-0.922-2.062-2.062-2.062
			c-0.968,0-2.484,1.56-4.62,0.558c-0.212-0.1-0.462-0.052-0.622,0.118c-0.16,0.17-0.194,0.422-0.082,0.628
			C22.229,6.474,23.833,7.98,26.841,7.98z"/>
		<path id="XMLID_11_" fill="#F7941D" d="M35.175,9.782c2.69-0.33,4.606-2.78,4.274-5.472c-0.33-2.69-2.784-4.604-5.473-4.274
			c-2.689,0.33-4.604,2.78-4.271,5.472C30.035,8.2,32.486,10.114,35.175,9.782z"/>
		<path id="XMLID_10_" fill="#F7941D" d="M29.169,42.971c1.608,0.707,3.466-0.033,4.164-1.615l4.074-9.237l-6.922,0.044l-2.93,6.645
			C26.849,40.402,27.573,42.266,29.169,42.971z"/>
		<path id="XMLID_9_" fill="#F7941D" d="M34.583,15.842l0.067-0.246c0.574-2.092-0.655-4.252-2.748-4.826
			c-2.085-0.57-4.253,0.658-4.825,2.75c-1.02,3.728-4.55,15.886-4.55,15.886c-0.08,0.266-0.03,0.556,0.136,0.778
			c0.164,0.224,0.426,0.356,0.702,0.356h14.138c0.208,0,0.394-0.122,0.479-0.312c0.084-0.19,0.049-0.412-0.092-0.566l-5.461-5.96
			l0.201-0.732c0.494,0.644,1.244,1.04,2.059,1.04c0.244,0,6.605-0.792,6.85-0.822c1.434-0.176,2.456-1.482,2.279-2.918
			c-0.176-1.436-1.508-2.464-2.918-2.28l-4.785,0.588L34.583,15.842z"/>
		<path id="XMLID_8_" fill="#F7941D" d="M52.367,28.29c0.546,0.434,1.308,0.572,2,0.292c1.025-0.416,1.52-1.582,1.104-2.606
			L52.1,17.648c-0.16-0.394-0.402-0.76-0.683-1.106l0.29-2.47c0.029-0.268-0.105-0.528-0.348-0.652
			c-0.24-0.124-0.532-0.086-0.732,0.096l-1.676,1.522c-1.555-0.322-3.229,0.2-4.286,1.524c-0.244,0.306-0.42,0.642-0.565,0.986
			c0.688,0.648,1.176,1.514,1.299,2.526c0.285,2.31-1.357,4.408-3.666,4.692l-1.102,0.136l-1.652,3.608l0.076,0.084
			c0.566,0.618,0.711,1.51,0.373,2.272c-0.045,0.096-0.111,0.172-0.162,0.258c-0.041,0.522-0.154,1.044-0.377,1.548l-3.846,8.719
			h3.098l4.148,6.726c-2.105,0.556-3.977,1.411-12.62,1.812c-8.48-0.392-10.356-1.207-12.46-1.77l4.172-6.768h4.532
			c-0.298-1.031-0.27-2.162,0.198-3.221l2.342-5.306l-1.392-0.746h-3.694c-0.778,0-1.518-0.374-1.976-1
			c-0.06-0.08-0.096-0.168-0.146-0.254h-1.032c-0.754,0-1.468,0.163-2.116,0.45c-0.524-2.418-1.94-6.276-5.748-7.667
			c0,0-4.124,2.83-2.984,7.304c0,0,4.466,0.746,6.596,2.094c-0.63,0.868-1.012,1.927-1.012,3.08c0,0.149,0.03,0.292,0.044,0.438
			l-2.704,9.981c-2.222-0.834-1.694-0.62-2.808-1.149c-1.31-0.623-2.1-0.922-2.1-0.922c-0.638-0.238-1.388-0.185-2,0.217
			c-1.022,0.673-1.306,2.045-0.636,3.064c4.38,6.676,13.03,10.784,19.458,11.893c2.722,0.468,8.302,0.468,10.93,0
			c6.391-1.141,15.02-5.176,19.532-11.955c0.364-0.553,0.478-1.273,0.233-1.945c-0.399-1.096-1.527-1.758-3.018-1.212
			c0,0-2.93,1.237-4.672,1.932l-2.674-9.872l4.886-10.66L52.367,28.29z"/>
	</g>
</g>
</svg>
