<?xml version="1.0" encoding="utf-8"?>
<!-- Generator: Adobe Illustrator 16.0.0, SVG Export Plug-In . SVG Version: 6.00 Build 0)  -->
<!DOCTYPE svg PUBLIC "-//W3C//DTD SVG 1.1//EN" "http://www.w3.org/Graphics/SVG/1.1/DTD/svg11.dtd">
<svg version="1.1" id="Layer_1" xmlns="http://www.w3.org/2000/svg" xmlns:xlink="http://www.w3.org/1999/xlink" x="0px" y="0px"
	 width="60px" height="60px" viewBox="0 0 60 60" enable-background="new 0 0 60 60" xml:space="preserve">
<g>
	<g>
		<g>
			<path fill="#F7941D" d="M30,0c-5.816,0-10.546,4.848-10.546,10.664S24.184,21.21,30,21.21c5.816,0,10.546-4.73,10.546-10.546
				S35.816,0,30,0z"/>
		</g>
	</g>
	<g>
		<g>
			<path fill="#F7941D" d="M33.516,21.21H30h-3.516c-2.48,0-4.876,0.64-7.054,1.732c3.7,0.998,7.182,2.436,10.57,4.38
				c3.387-1.944,6.87-3.382,10.57-4.38C38.391,21.852,35.996,21.21,33.516,21.21z"/>
		</g>
	</g>
	<g>
		<g>
			<path fill="#F7941D" d="M56.484,31.758c-1.942,0-3.517,1.574-3.517,3.516v7.033c0,1.941,1.574,3.516,3.517,3.516
				c1.941,0,3.516-1.576,3.516-3.518v-7.033C60,33.332,58.426,31.758,56.484,31.758z"/>
		</g>
	</g>
	<g>
		<g>
			<path fill="#F7941D" d="M3.516,31.758C1.574,31.758,0,33.332,0,35.273v7.033c0,1.941,1.574,3.516,3.516,3.516
				s3.516-1.574,3.516-3.516v-7.033C7.032,33.332,5.458,31.758,3.516,31.758z"/>
		</g>
	</g>
	<g>
		<g>
			<path fill="#F7941D" d="M5.274,24.726c-0.972,0-1.758,0.786-1.758,1.758v1.758c3.878,0,7.032,3.154,7.032,7.031v7.033
				c0,3.877-3.154,7.031-7.032,7.031v1.758c0,0.973,0.786,1.758,1.758,1.758c9.012,0,16.218,2.847,22.968,7.148v-29.58
				C21.46,26.532,14.168,24.726,5.274,24.726z"/>
		</g>
	</g>
	<g>
		<g>
			<path fill="#F7941D" d="M56.484,28.242v-1.758c0-0.972-0.786-1.758-1.758-1.758c-8.895,0-16.188,1.806-22.969,5.694V60
				c6.752-4.302,13.956-7.148,22.969-7.148c0.972,0,1.758-0.785,1.758-1.758v-1.758c-3.879,0-7.032-3.154-7.032-7.031v-7.033
				C49.454,31.396,52.605,28.242,56.484,28.242z"/>
		</g>
	</g>
</g>
</svg>
