<?xml version="1.0" encoding="utf-8"?>
<!-- Generator: Adobe Illustrator 24.0.0, SVG Export Plug-In . SVG Version: 6.00 Build 0)  -->
<svg version="1.1" id="Layer_1" xmlns="http://www.w3.org/2000/svg" xmlns:xlink="http://www.w3.org/1999/xlink" x="0px" y="0px"
	 viewBox="0 0 16 12" style="enable-background:new 0 0 16 12;" xml:space="preserve">
<style type="text/css">
	.st0{opacity:0.15;}
	.st1{fill:#FFFFFF;}
	.st2{opacity:0.2;}
	.st3{opacity:0.4;}
	.st4{fill:#FFFFFF;stroke:#FFFFFF;stroke-width:0.5;stroke-miterlimit:10;}
	.st5{fill:#FFFFFF;stroke:#FFFFFF;stroke-width:0.6;stroke-miterlimit:10;}
	.st6{fill:#F7941D;}
	.st7{fill-rule:evenodd;clip-rule:evenodd;fill:#FFFFFF;}
</style>
<g>
	<g>
		<g>
			<g>
				<path class="st6" d="M0.334,0.974c2.196,1.86,6.049,5.132,7.182,6.152C7.668,7.263,7.831,7.333,8,7.333
					c0.169,0,0.332-0.069,0.483-0.206c1.133-1.021,4.987-4.293,7.183-6.153c0.137-0.116,0.158-0.319,0.047-0.46
					C15.457,0.187,15.076,0,14.667,0H1.333c-0.409,0-0.79,0.187-1.046,0.514C0.176,0.655,0.197,0.858,0.334,0.974z"/>
				<path class="st6" d="M15.807,1.981c-0.118-0.055-0.257-0.036-0.355,0.048c-1.438,1.219-3.333,2.83-4.762,4.059
					c-0.075,0.064-0.118,0.159-0.116,0.258c0.002,0.099,0.048,0.192,0.125,0.254c1.328,1.063,3.329,2.526,4.774,3.566
					c0.058,0.042,0.126,0.063,0.195,0.063c0.052,0,0.104-0.012,0.152-0.037C15.93,10.136,16,10.022,16,9.897V2.284
					C16,2.154,15.924,2.036,15.807,1.981z"/>
				<path class="st6" d="M0.528,10.167c1.445-1.04,3.447-2.503,4.774-3.566C5.38,6.539,5.425,6.446,5.427,6.347
					c0.002-0.099-0.041-0.194-0.116-0.258C3.882,4.859,1.987,3.249,0.549,2.03C0.45,1.946,0.311,1.927,0.193,1.981
					C0.076,2.036,0,2.154,0,2.284v7.613c0,0.125,0.07,0.24,0.181,0.297c0.048,0.025,0.1,0.037,0.152,0.037
					C0.402,10.23,0.47,10.209,0.528,10.167z"/>
				<path class="st6" d="M15.591,11.074c-1.396-0.998-3.966-2.86-5.501-4.105C9.966,6.867,9.785,6.87,9.662,6.977
					C9.361,7.239,9.109,7.461,8.93,7.621C8.381,8.117,7.619,8.117,7.069,7.621c-0.178-0.16-0.43-0.382-0.731-0.644
					C6.216,6.87,6.035,6.867,5.909,6.969C4.38,8.21,1.807,10.074,0.409,11.074c-0.078,0.056-0.128,0.142-0.138,0.238
					c-0.009,0.095,0.022,0.19,0.088,0.26C0.611,11.844,0.966,12,1.333,12h13.333c0.367,0,0.722-0.156,0.975-0.428
					c0.065-0.07,0.097-0.165,0.088-0.26C15.719,11.217,15.669,11.13,15.591,11.074z"/>
			</g>
		</g>
	</g>
</g>
</svg>
