<?xml version="1.0" encoding="utf-8"?>
<!-- Generator: Adobe Illustrator 16.0.0, SVG Export Plug-In . SVG Version: 6.00 Build 0)  -->
<!DOCTYPE svg PUBLIC "-//W3C//DTD SVG 1.1//EN" "http://www.w3.org/Graphics/SVG/1.1/DTD/svg11.dtd">
<svg version="1.1" id="Layer_1" xmlns="http://www.w3.org/2000/svg" xmlns:xlink="http://www.w3.org/1999/xlink" x="0px" y="0px"
	 width="60px" height="60px" viewBox="0 0 60 60" enable-background="new 0 0 60 60" xml:space="preserve">
<g>
	<g>
		<g>
			<circle fill="#F7941D" cx="30.001" cy="29.444" r="2.18"/>
		</g>
	</g>
	<g>
		<g>
			<rect x="25.847" y="49.685" fill="#F7941D" width="7.999" height="7.231"/>
		</g>
	</g>
	<g>
		<g>
			<path fill="#F7941D" d="M29.861,3.083L12.249,18.162l2.225,2.589l14.587-12.43c0.461-0.393,1.14-0.391,1.6,0.001l14.527,12.434
				l2.277-2.602L29.861,3.083z"/>
		</g>
	</g>
	<g>
		<g>
			<path fill="#F7941D" d="M1.825,31.069C0.806,31.084-0.011,31.918,0,32.938v23.979h15.538V31.069H1.825L1.825,31.069z
				 M5.846,50.186c0,0.68-0.551,1.23-1.231,1.23s-1.231-0.551-1.231-1.23v-2.645c0-0.681,0.551-1.231,1.231-1.231
				s1.231,0.551,1.231,1.231V50.186z M5.846,39.884c0,0.681-0.551,1.231-1.231,1.231s-1.231-0.551-1.231-1.231v-2.646
				c0-0.68,0.551-1.23,1.231-1.23s1.231,0.551,1.231,1.23V39.884z M12.154,50.186c0,0.68-0.551,1.23-1.231,1.23
				c-0.68,0-1.231-0.551-1.231-1.23v-2.645c0-0.681,0.551-1.231,1.231-1.231c0.68,0,1.231,0.551,1.231,1.231V50.186z M12.154,39.884
				c0,0.681-0.551,1.231-1.231,1.231c-0.68,0-1.231-0.551-1.231-1.231v-2.646c0-0.68,0.551-1.23,1.231-1.23
				c0.68,0,1.231,0.551,1.231,1.23V39.884z"/>
		</g>
	</g>
	<g>
		<g>
			<path fill="#F7941D" d="M29.802,10.877L18,20.917v36h5.385v-8.471c-0.02-0.655,0.495-1.201,1.15-1.221c0.013,0,0.025,0,0.038,0
				h10.58c0.681,0,1.158,0.542,1.158,1.223v8.469h5.23v-36.01L29.802,10.877z M30.001,24.802c2.563,0.001,4.639,2.08,4.642,4.642
				c0,2.564-2.078,4.642-4.642,4.642c-2.564,0-4.642-2.078-4.642-4.642C25.359,26.879,27.437,24.802,30.001,24.802z M35.15,42.301
				H24.501c-0.68,0-1.231-0.551-1.231-1.23c0-0.681,0.551-1.231,1.231-1.231H35.15c0.681,0,1.231,0.551,1.231,1.231
				C36.382,41.75,35.831,42.301,35.15,42.301z"/>
		</g>
	</g>
	<g>
		<g>
			<path fill="#F7941D" d="M58.176,31.069H43.999v25.847h15.999V32.938C60.011,31.918,59.194,31.084,58.176,31.069z M50.307,50.186
				c0,0.68-0.551,1.23-1.23,1.23c-0.681,0-1.231-0.551-1.231-1.23v-2.645c0-0.681,0.551-1.231,1.231-1.231
				c0.68,0,1.23,0.551,1.23,1.231V50.186z M50.307,39.884c0,0.681-0.551,1.231-1.23,1.231c-0.681,0-1.231-0.551-1.231-1.231v-2.646
				c0-0.68,0.551-1.23,1.231-1.23c0.68,0,1.23,0.551,1.23,1.23V39.884z M56.461,50.186c0,0.68-0.551,1.23-1.23,1.23
				S54,50.865,54,50.186v-2.645c0-0.681,0.551-1.231,1.23-1.231s1.23,0.551,1.23,1.231V50.186z M56.461,39.884
				c0,0.681-0.551,1.231-1.23,1.231S54,40.564,54,39.884v-2.646c0-0.68,0.551-1.23,1.23-1.23s1.23,0.551,1.23,1.23V39.884z"/>
		</g>
	</g>
</g>
</svg>
