<?xml version="1.0" encoding="utf-8"?>
<!-- Generator: Adobe Illustrator 16.0.0, SVG Export Plug-In . SVG Version: 6.00 Build 0)  -->
<!DOCTYPE svg PUBLIC "-//W3C//DTD SVG 1.1//EN" "http://www.w3.org/Graphics/SVG/1.1/DTD/svg11.dtd">
<svg version="1.1" id="Layer_1" xmlns="http://www.w3.org/2000/svg" xmlns:xlink="http://www.w3.org/1999/xlink" x="0px" y="0px"
	 width="60px" height="60px" viewBox="0 0 60 60" enable-background="new 0 0 60 60" xml:space="preserve">
<g>
	<g id="Outline_2_">
		<path fill="#F7941D" d="M15,4.068h-4c-0.552,0-1,0.455-1,1.017v4.068c0,0.562,0.447,1.017,1,1.017h4c0.552,0,1-0.455,1-1.017
			V5.085C16,4.523,15.552,4.068,15,4.068z M14,8.136h-2V6.102h2V8.136z"/>
		<path fill="#F7941D" d="M29,34.576h2v2.033h-2V34.576z"/>
		<path fill="#F7941D" d="M29,38.645h2v2.033h-2V38.645z"/>
		<path fill="#F7941D" d="M29,42.713h2v2.033h-2V42.713z"/>
		<path fill="#F7941D" d="M29,46.779h2v2.033h-2V46.779z"/>
		<path fill="#F7941D" d="M29,50.848h2v2.033h-2V50.848z"/>
		<path fill="#F7941D" d="M33,34.576h2v2.033h-2V34.576z"/>
		<path fill="#F7941D" d="M33,38.645h2v2.033h-2V38.645z"/>
		<path fill="#F7941D" d="M33,42.713h2v2.033h-2V42.713z"/>
		<path fill="#F7941D" d="M33,46.779h2v2.033h-2V46.779z"/>
		<path fill="#F7941D" d="M33,50.848h2v2.033h-2V50.848z"/>
		<path fill="#F7941D" d="M37,34.576h2v2.033h-2V34.576z"/>
		<path fill="#F7941D" d="M37,38.645h2v2.033h-2V38.645z"/>
		<path fill="#F7941D" d="M37,42.713h2v2.033h-2V42.713z"/>
		<path fill="#F7941D" d="M37,46.779h2v2.033h-2V46.779z"/>
		<path fill="#F7941D" d="M37,50.848h2v2.033h-2V50.848z"/>
		<path fill="#F7941D" d="M47,38.645h1.999v2.033H47V38.645z"/>
		<path fill="#F7941D" d="M47,42.713h1.999v2.033H47V42.713z"/>
		<path fill="#F7941D" d="M47,46.779h1.999v2.033H47V46.779z"/>
		<path fill="#F7941D" d="M47,50.848h1.999v2.033H47V50.848z"/>
		<path fill="#F7941D" d="M51,38.645h2v2.033h-2V38.645z"/>
		<path fill="#F7941D" d="M51,42.713h2v2.033h-2V42.713z"/>
		<path fill="#F7941D" d="M51,46.779h2v2.033h-2V46.779z"/>
		<path fill="#F7941D" d="M51,50.848h2v2.033h-2V50.848z"/>
		<path fill="#F7941D" d="M58,57.967V35.594c0-0.507-0.365-0.936-0.858-1.008L55,34.275v-3.768h2v-2.033h-2v-2.034h-1.999v2.034h-3
			v-4.068H52v-2.033h-1.999V20.34H48v2.034h-2v2.033h2v4.068h-2v2.033h2v2.751l-4-0.581v-3.186c0-0.562-0.447-1.017-1.001-1.017H42
			v-4.068h-2v4.068h-1.999v-6.102H40V20.34h-1.999v-4.068H36v4.068h-2v-2.034h-1.999v2.033H30v2.034h2v6.101h-4.001V26.44H30v-2.034
			h-2v-6.101h2v-2.034h-2v-2.033h-2v2.033H24v2.034h2v6.101h-2v2.034h2v2.033h-1c-0.552,0-1,0.455-1,1.017v28.474h-2v-3.051
			c0-0.562-0.447-1.017-1-1.017h-4v-39.66h2c0.552,0,1-0.455,1-1.017v-3.051h36c0.553,0,1.001-0.455,1.001-1.017
			c0-0.27-0.106-0.528-0.294-0.719l-4-4.068c-0.188-0.191-0.441-0.298-0.707-0.298H20V1.017C20,0.455,19.552,0,18.999,0h-12
			C6.447,0,6,0.455,6,1.017V3.05H3c-0.552,0-1,0.455-1,1.017v1.017H0v2.034h2v1.017c0,0.385,0.214,0.737,0.553,0.91L6,10.798v2.423
			c0,0.562,0.447,1.017,1,1.017h2v39.661H5c-0.552,0-1,0.455-1,1.017v3.052H0V60h60v-2.033H58z M41.586,8.136h-3.172l-2-2.034h3.172
			L41.586,8.136z M42.414,6.102h3.172l2,2.033h-3.172L42.414,6.102z M35.586,8.136h-3.172l-2-2.034h3.171L35.586,8.136z
			 M29.585,8.136h-3.171l-2-2.034h3.171L29.585,8.136z M53.586,8.136h-3.172l-2-2.034h3.172L53.586,8.136z M21.586,6.102l2,2.033H20
			V6.102H21.586z M50,30.508h3v3.478l-3-0.437V30.508z M56,36.476v21.491H44V34.732L56,36.476z M34,22.373h2v6.101h-2V22.373z
			 M26,30.508h16v27.457H26V30.508z M12.415,53.898L15,51.269v2.63H12.415z M11,19.743l4-4.068v4.243l-4,4.068V19.743z M11,26.861
			l4-4.068v4.243l-4,4.067V26.861z M11,33.98l4-4.068v4.243l-4,4.067V33.98z M11,41.1l4-4.068v4.242l-4,4.068V41.1z M11,48.219
			l4-4.068v4.242l-4,4.068V48.219z M4,7.508V5.085h2v3.439L4,7.508z M8,2.033h10v10.17H8V2.033z M13.586,14.237l-2.585,2.63v-2.63
			H13.586z M6,55.932h14v2.033H6V55.932z"/>
		<path fill="#F7941D" d="M36,12.203h2v2.033h-2V12.203z"/>
		<path fill="#F7941D" d="M48,16.271h2v2.033h-2V16.271z"/>
	</g>
</g>
</svg>
