<?xml version="1.0" encoding="utf-8"?>
<!-- Generator: Adobe Illustrator 16.0.0, SVG Export Plug-In . SVG Version: 6.00 Build 0)  -->
<!DOCTYPE svg PUBLIC "-//W3C//DTD SVG 1.1//EN" "http://www.w3.org/Graphics/SVG/1.1/DTD/svg11.dtd">
<svg version="1.1" id="Layer_1" xmlns="http://www.w3.org/2000/svg" xmlns:xlink="http://www.w3.org/1999/xlink" x="0px" y="0px"
	 width="60px" height="60px" viewBox="0 0 60 60" enable-background="new 0 0 60 60" xml:space="preserve">
<g>
	<g>
		<path fill="#F7941D" d="M59.998,48.398c0-0.683-0.4-1.33-1.068-1.614l-9.386-3.994l-8.808,10.099
			c-0.639,0.728-1.744,0.801-2.473,0.163c-0.142-0.124-0.26-0.268-0.352-0.422l-5.12-7.452c-0.819,0.116-1.66,0.176-2.512,0.176
			c-1.024,0-2.032-0.088-3.014-0.256L22.09,52.63c-0.092,0.154-0.21,0.298-0.352,0.422c-0.728,0.638-1.834,0.564-2.472-0.163
			l-8.99-10.307l-9.248,4.223c-0.644,0.293-1.02,0.829-1.022,1.493l-0.008,9.944c0,0.97,0.788,1.758,1.758,1.758
			c18.828,0,37.66,0,56.488,0c0.97,0,1.758-0.788,1.758-1.758L59.998,48.398z"/>
		<path fill="#F7941D" d="M17.008,39.51L13.6,41.066l6.822,7.819l3.284-4.78c-0.104-0.041-0.208-0.084-0.312-0.125
			c-2.214-0.92-4.202-2.263-5.858-3.916C17.356,39.882,17.18,39.698,17.008,39.51z"/>
		<path fill="#F7941D" d="M46.152,41.348l-3.101-1.318l-0.03,0.033c-1.852,1.852-4.102,3.304-6.609,4.215l3.166,4.608L46.152,41.348
			z"/>
		<path fill="#F7941D" d="M14.286,12.42h31.987L48.34,8.5c0.053-0.092,0.098-0.188,0.135-0.29c0.321-0.914-0.158-1.916-1.072-2.238
			L30.861,0.1c-0.363-0.128-0.773-0.138-1.167,0L13.158,5.97l0,0C13.078,5.998,13,6.032,12.924,6.074
			c-0.858,0.45-1.186,1.512-0.736,2.368L14.286,12.42z M30.28,4.452c0.968,0,1.758,0.79,1.758,1.758c0,0.968-0.79,1.758-1.758,1.758
			c-0.968,0-1.758-0.79-1.758-1.758C28.522,5.242,29.312,4.452,30.28,4.452z"/>
		<path fill="#F7941D" d="M47.24,17.96l-1.456-2.024H14.76l-1.456,2.082c-0.588,0.846-0.328,2.008,0.562,2.52
			c4.41,2.538,11.702,3.6,16.966,3.6c5.428,0,11.107-0.872,15.855-3.642C47.58,19.98,47.844,18.798,47.24,17.96z"/>
		<path fill="#F7941D" d="M40.536,37.576c2.632-2.633,4.264-6.262,4.264-10.258v-2.026c-1.644,0.646-3.344,1.136-5.069,1.498
			c-2.977,0.624-5.988,0.864-8.898,0.864c-3.062,0-6.782-0.34-10.32-1.09c-1.638-0.348-3.248-0.79-4.754-1.334v2.088
			c0,3.997,1.634,7.625,4.264,10.258c2.63,2.632,6.262,4.264,10.258,4.264C34.273,41.84,37.906,40.206,40.536,37.576z"/>
	</g>
</g>
</svg>
