<?xml version="1.0" encoding="utf-8"?>
<!-- Generator: Adobe Illustrator 16.0.0, SVG Export Plug-In . SVG Version: 6.00 Build 0)  -->
<!DOCTYPE svg PUBLIC "-//W3C//DTD SVG 1.1//EN" "http://www.w3.org/Graphics/SVG/1.1/DTD/svg11.dtd">
<svg version="1.1" id="Layer_1" xmlns="http://www.w3.org/2000/svg" xmlns:xlink="http://www.w3.org/1999/xlink" x="0px" y="0px"
	 width="60px" height="60px" viewBox="0 0 60 60" enable-background="new 0 0 60 60" xml:space="preserve">
<g>
	<g>
		<g>
			<g>
				<path fill="#F7941D" d="M23.092,31.754c3.539,0.438,6.838,1.565,9.897,2.979c1.483,0.693,3.073,1.603,4.317,2.313
					c1.246,0.734,2.512,1.396,3.791,2.043l-7.755-15.353l-1.638-2.88l-5.788-10.138c-0.816-1.43-2.635-1.929-4.068-1.114
					c-1.436,0.821-1.929,2.639-1.111,4.069l6.399,11.22l-1.635,1.453l-9.782,5.579l-0.226,0.126
					C18.012,31.521,20.614,31.443,23.092,31.754z"/>
				<path fill="#F7941D" d="M47.377,31.129c3.09-1.762,4.163-5.698,2.406-8.786c-1.762-3.081-5.693-4.162-8.783-2.399
					c-3.084,1.763-4.17,5.7-2.407,8.781C40.352,31.82,44.295,32.893,47.377,31.129z"/>
				<path fill="#F7941D" d="M59.574,35.939c-0.913,3.033-2.355,5.85-4.411,7.303c-1.999,1.455-4.28,1.547-6.788,1.041
					c-2.504-0.526-5.101-1.596-7.643-2.879c-1.287-0.649-2.553-1.313-3.801-2.052c-1.245-0.71-2.838-1.616-4.322-2.311
					c-3.056-1.412-6.358-2.542-9.899-2.979c-3.513-0.441-7.293-0.15-10.705,1.204c-3.42,1.332-6.318,3.671-8.324,6.424
					C1.709,44.478,0.342,47.561,0,50.789c3.835-5.076,8.725-8.718,13.801-9.57c5.06-0.928,10.328,0.596,15.437,3
					c1.331,0.604,2.452,1.214,3.918,2c1.476,0.742,2.982,1.466,4.534,2.07c3.116,1.2,6.467,2.186,10.159,2.212
					c1.834,0.005,3.781-0.249,5.617-1.011c1.85-0.744,3.505-2.057,4.58-3.627C60.15,42.633,60.37,39.046,59.574,35.939z"/>
			</g>
		</g>
	</g>
</g>
</svg>
