<?xml version="1.0" encoding="utf-8"?>
<!-- Generator: Adobe Illustrator 16.0.0, SVG Export Plug-In . SVG Version: 6.00 Build 0)  -->
<!DOCTYPE svg PUBLIC "-//W3C//DTD SVG 1.1//EN" "http://www.w3.org/Graphics/SVG/1.1/DTD/svg11.dtd">
<svg version="1.1" id="Layer_1" xmlns="http://www.w3.org/2000/svg" xmlns:xlink="http://www.w3.org/1999/xlink" x="0px" y="0px"
	 width="60px" height="60px" viewBox="0 0 60 60" enable-background="new 0 0 60 60" xml:space="preserve">
<g>
	<g>
		<g>
			<g>
				<path fill="#F7941D" d="M26.259,12.537C27.323,13.268,28.611,13.7,30,13.7s2.676-0.432,3.741-1.164
					c-1.014-0.852-2.318-1.366-3.741-1.366C28.577,11.171,27.272,11.685,26.259,12.537z"/>
				<path fill="#F7941D" d="M33.741,1.666C32.676,0.933,31.389,0.5,30,0.5c-1.391,0-2.678,0.432-3.741,1.166
					c1.013,0.85,2.318,1.366,3.741,1.366C31.423,3.032,32.728,2.516,33.741,1.666z"/>
				<path fill="#F7941D" d="M25.091,11.502c1.307-1.169,3.023-1.885,4.909-1.885s3.603,0.716,4.909,1.885
					c1.048-1.169,1.691-2.708,1.691-4.402c0-1.694-0.644-3.232-1.691-4.402C33.603,3.868,31.886,4.583,30,4.583
					s-3.602-0.717-4.909-1.885c-1.048,1.169-1.692,2.708-1.692,4.402C23.399,8.794,24.043,10.333,25.091,11.502z"/>
				<path fill="#F7941D" d="M58.462,53.447L44.776,39.764c-0.468-0.468-1.038-0.767-1.634-0.916
					c-3.378-4.233-4.111-8.926-4.26-10.816c1.156-4.916,0.08-10.634-3.083-15.691c-1.191,1.32-2.825,2.229-4.672,2.495l0.677,0.676
					l-3.045,3.044l-3.045-3.045l1.213-1.211c-0.621-0.265-1.196-0.613-1.722-1.023l-0.863,0.863l-3.044-3.045l1.346-1.346
					c-0.259-0.721-0.415-1.491-0.451-2.292l-2.267,2.267l-3.045-3.044l2.805-2.804c0.218,0.05,0.435,0.114,0.653,0.172l1.927,1.927
					c0.205-1.417,0.783-2.71,1.639-3.773C16.991-0.668,9.529,0.07,4.799,4.801c-6.728,6.729-5.414,18.986,2.926,27.326
					c5.926,5.925,13.822,8.284,20.314,6.752c1.892,0.146,6.564,0.872,10.81,4.263c0.15,0.596,0.446,1.166,0.913,1.635l13.688,13.685
					c1.385,1.385,3.627,1.385,5.013,0C59.846,57.075,59.846,54.833,58.462,53.447z M36.256,26.053l-1.71-1.71l1.799-1.796
					C36.447,23.744,36.42,24.918,36.256,26.053z M35.742,28.281c-0.468,1.438-1.192,2.762-2.167,3.918l-3.444-3.441l3.045-3.043
					L35.742,28.281z M33.177,16.882l2.633,2.634c0.058,0.217,0.12,0.434,0.169,0.652l-2.802,2.803l-3.046-3.044L33.177,16.882z
					 M31.805,24.343l-3.045,3.045l-3.045-3.046l3.045-3.044L31.805,24.343z M14.139,24.342l-3.047,3.046l-3.043-3.044l3.045-3.044
					L14.139,24.342z M8.049,15.509l3.045-3.044l3.045,3.044l-3.045,3.046L8.049,15.509z M12.465,19.927l3.045-3.045l3.044,3.045
					l-3.044,3.044L12.465,19.927z M19.926,21.298l3.045,3.044l-3.044,3.046l-3.045-3.046L19.926,21.298z M24.343,25.715l3.045,3.044
					l-3.045,3.044l-3.045-3.045L24.343,25.715z M27.387,19.927l-3.044,3.044l-3.045-3.045l3.044-3.044L27.387,19.927z
					 M19.927,12.466l3.044,3.045l-3.044,3.044l-3.045-3.045L19.927,12.466z M18.555,11.092l-3.045,3.046l-3.044-3.046l3.044-3.044
					L18.555,11.092z M17.305,3.51l-1.797,1.795l-1.71-1.708C14.933,3.432,16.109,3.406,17.305,3.51z M11.571,4.111l2.566,2.566
					l-3.043,3.044L7.651,6.279C8.811,5.304,10.134,4.58,11.571,4.111z M6.278,7.65l3.442,3.442l-3.042,3.044L4.109,11.57
					C4.58,10.132,5.302,8.809,6.278,7.65z M3.594,13.8l1.71,1.709l-1.797,1.798C3.404,16.109,3.429,14.933,3.594,13.8z
					 M3.871,19.687l2.807-2.805l3.043,3.045l-3.045,3.044l-2.634-2.633C3.984,20.121,3.921,19.903,3.871,19.687z M9.108,29.372
					c-1.007-1.095-1.896-2.25-2.64-3.447l0.208-0.209l3.043,3.044L9.108,29.372z M13.929,33.384
					c-1.201-0.743-2.354-1.633-3.449-2.641l0.613-0.611l3.045,3.044L13.929,33.384z M12.464,28.759l3.045-3.044l3.045,3.044
					l-3.045,3.044L12.464,28.759z M19.515,35.81l-2.634-2.634l3.045-3.045l3.045,3.045l-2.805,2.803
					C19.95,35.93,19.732,35.866,19.515,35.81z M22.544,36.346l1.798-1.8l1.71,1.709C24.92,36.42,23.743,36.447,22.544,36.346z
					 M28.283,35.742l-2.567-2.566l3.043-3.045l3.442,3.444C31.043,34.55,29.72,35.272,28.283,35.742z M39.762,39.762
					c-0.181,0.184-0.336,0.381-0.467,0.59c-2.397-1.675-4.834-2.66-6.894-3.227c0.954-0.578,1.845-1.264,2.651-2.072
					c0.808-0.807,1.494-1.699,2.071-2.65c0.566,2.06,1.551,4.496,3.225,6.892C40.142,39.428,39.944,39.582,39.762,39.762z"/>
			</g>
		</g>
	</g>
</g>
</svg>
